<?xml version="1.0" encoding="UTF-8"?>
<svg version="1.1" xmlns="http://www.w3.org/2000/svg" width="1024" height="1024">
<path d="M0 0 C5.2787157 0.66396137 10.58512504 1.00642147 15.89208984 1.36376953 C15.89208984 2.02376953 15.89208984 2.68376953 15.89208984 3.36376953 C16.47474609 3.40115234 17.05740234 3.43853516 17.65771484 3.47705078 C24.62639565 4.03586009 31.1566495 5.523675 37.89208984 7.36376953 C38.22208984 6.70376953 38.55208984 6.04376953 38.89208984 5.36376953 C38.89208984 6.35376953 38.89208984 7.34376953 38.89208984 8.36376953 C44.33708984 8.85876953 44.33708984 8.85876953 49.89208984 9.36376953 C49.89208984 10.02376953 49.89208984 10.68376953 49.89208984 11.36376953 C50.51083984 11.17814453 51.12958984 10.99251953 51.76708984 10.80126953 C53.89208984 10.36376953 53.89208984 10.36376953 55.89208984 11.36376953 C55.89208984 12.02376953 55.89208984 12.68376953 55.89208984 13.36376953 C56.81892578 13.44884766 57.74576172 13.53392578 58.70068359 13.62158203 C64.02717552 14.38538087 68.93540965 16.3653899 73.95458984 18.23876953 C74.92203125 18.59068359 75.88947266 18.94259766 76.88623047 19.30517578 C81.71778918 21.08435346 86.29831138 23.02842401 90.89208984 25.36376953 C91.52888672 25.51974609 92.16568359 25.67572266 92.82177734 25.83642578 C96.09886946 26.67115679 99.01505275 28.27952831 102.01708984 29.80126953 C102.71068604 30.15036377 103.40428223 30.49945801 104.11889648 30.85913086 C111.77597255 34.75208218 119.26971398 38.93677674 126.74780273 43.16088867 C128.21890004 43.98613021 129.69494806 44.8025898 131.17504883 45.61157227 C135.95897893 48.22896474 140.56402717 50.99512578 145.07958984 54.05126953 C145.71541992 54.47915771 146.35125 54.9070459 147.00634766 55.34790039 C157.68537062 62.57062564 168.05524593 70.01373603 177.89208984 78.36376953 C178.44977051 78.83121582 179.00745117 79.29866211 179.58203125 79.78027344 C189.04392446 87.72127586 197.89820465 96.12793617 206.52612305 104.96606445 C207.64039471 106.10622625 208.76479879 107.23647847 209.89208984 108.36376953 C211.91359112 110.68110026 213.90973766 113.01320506 215.89208984 115.36376953 C216.51986328 116.10240234 217.14763672 116.84103516 217.79443359 117.60205078 C222.7797046 123.57137901 227.46129629 129.73290403 232.07958984 135.98876953 C232.95260742 137.16971191 232.95260742 137.16971191 233.84326172 138.37451172 C237.27809177 143.05783801 240.53098309 147.80758582 243.6237793 152.72460938 C244.04232178 153.26553223 244.46086426 153.80645508 244.89208984 154.36376953 C245.55208984 154.36376953 246.21208984 154.36376953 246.89208984 154.36376953 C246.9984375 155.34410156 246.9984375 155.34410156 247.10693359 156.34423828 C248.19893311 160.5438185 250.28844183 163.93967419 252.45458984 167.67626953 C256.89203237 175.4976496 261.06010946 183.39949354 264.98046875 191.49169922 C265.83678414 193.25019585 266.71337106 194.99877995 267.59130859 196.74658203 C273.22879519 208.28437511 277.4536276 220.36017149 281.82373047 232.421875 C284.11261647 238.99645487 284.11261647 238.99645487 286.89208984 245.36376953 C287.2083419 246.85877926 287.49583038 248.35994516 287.76708984 249.86376953 C288.90821714 255.76674384 290.18819291 261.95597566 292.89208984 267.36376953 C293.13217793 269.46932081 293.36833063 271.57539975 293.58398438 273.68359375 C294.02688622 277.5363485 294.67348471 281.34925516 295.30126953 285.17553711 C310.22141203 376.97853957 290.91090418 471.49934518 236.76708984 547.73876953 C235.15919283 549.96002106 233.52988545 552.1645003 231.89208984 554.36376953 C231.48249023 554.91758301 231.07289063 555.47139648 230.65087891 556.04199219 C225.56944836 562.88665137 220.23380895 569.39453389 214.41162109 575.63330078 C212.46066508 577.74759264 210.57538248 579.88666287 208.70068359 582.06689453 C204.38535456 587.01489813 199.78533557 591.66241417 195.14208984 596.30126953 C194.25392578 597.18862793 193.36576172 598.07598633 192.45068359 598.99023438 C186.51709984 604.86843512 180.49615381 610.25161891 173.89208984 615.36376953 C172.0347858 616.94342144 170.18081851 618.5270021 168.32958984 620.11376953 C155.049305 631.16639369 140.79187257 640.65213454 125.89208984 649.36376953 C125.23031738 649.75516113 124.56854492 650.14655273 123.88671875 650.54980469 C69.92361946 682.36376953 69.92361946 682.36376953 46.89208984 682.36376953 C46.56208984 683.02376953 46.23208984 683.68376953 45.89208984 684.36376953 C43.48807464 685.08528917 41.15579768 685.66048054 38.70458984 686.17626953 C37.92575439 686.34368652 37.14691895 686.51110352 36.34448242 686.68359375 C9.59885647 692.25888148 -16.78781975 695.86200826 -44.10791016 695.36376953 C-44.10791016 696.02376953 -44.10791016 696.68376953 -44.10791016 697.36376953 C-44.76791016 697.03376953 -45.42791016 696.70376953 -46.10791016 696.36376953 C-47.82562053 696.2566086 -49.54713554 696.20822083 -51.26806641 696.18798828 C-82.88840059 695.57639 -115.04771636 692.24743898 -145.2565918 682.56176758 C-146.20912842 682.26310791 -147.16166504 681.96444824 -148.14306641 681.65673828 C-149.40195679 681.24717896 -149.40195679 681.24717896 -150.6862793 680.8293457 C-153.45617058 680.29681393 -155.40153395 680.64591146 -158.10791016 681.36376953 C-158.10791016 680.70376953 -158.10791016 680.04376953 -158.10791016 679.36376953 C-159.09791016 679.03376953 -160.08791016 678.70376953 -161.10791016 678.36376953 C-162.94472328 677.60126532 -164.77756304 676.82916706 -166.60791016 676.05126953 C-171.68577229 673.91126917 -176.80358287 672.01400832 -182.02587891 670.25830078 C-184.10791016 669.36376953 -184.10791016 669.36376953 -185.10791016 667.36376953 C-185.78853516 667.23873047 -186.46916016 667.11369141 -187.17041016 666.98486328 C-191.18714346 666.13558057 -194.48495904 664.31461582 -198.10791016 662.42626953 C-204.44673503 659.01543265 -204.44673503 659.01543265 -211.10791016 656.36376953 C-212.09791016 656.69376953 -213.08791016 657.02376953 -214.10791016 657.36376953 C-214.10791016 656.37376953 -214.10791016 655.38376953 -214.10791016 654.36376953 C-216.39665189 653.02518429 -218.68860672 651.69275939 -220.98291016 650.36376953 C-221.63388672 649.98220703 -222.28486328 649.60064453 -222.95556641 649.20751953 C-226.31141217 647.08825797 -226.31141217 647.08825797 -230.10791016 646.36376953 C-230.76791016 645.70376953 -231.42791016 645.04376953 -232.10791016 644.36376953 C-233.42626495 643.44603548 -234.76219239 642.55338915 -236.10791016 641.67626953 C-243.67044648 636.68305645 -251.04262436 631.53448889 -258.10009766 625.84423828 C-260.0163717 624.32475711 -260.0163717 624.32475711 -262.05322266 623.47705078 C-264.92709745 621.9199133 -266.82897659 619.69967644 -269.10791016 617.36376953 C-271.23786239 615.46608748 -273.42490276 613.63746684 -275.60791016 611.80126953 C-282.62174816 605.84257776 -289.41847664 599.68357127 -296.10791016 593.36376953 C-296.85814453 592.65607422 -297.60837891 591.94837891 -298.38134766 591.21923828 C-302.84360332 586.88926292 -306.77425283 582.2359725 -310.63916016 577.36767578 C-312.68178468 574.88226715 -314.77729073 572.49636806 -316.93212891 570.10986328 C-321.01510184 565.5387398 -324.75803779 560.77555386 -328.42041016 555.86376953 C-329.3827356 554.58131348 -329.3827356 554.58131348 -330.36450195 553.27294922 C-335.14384366 546.83389087 -339.58943616 540.22773467 -343.78295898 533.39306641 C-344.84331736 531.68589563 -345.9690075 530.01957528 -347.10791016 528.36376953 C-347.76791016 528.36376953 -348.42791016 528.36376953 -349.10791016 528.36376953 C-349.10791016 527.37376953 -349.10791016 526.38376953 -349.10791016 525.36376953 C-349.76791016 525.03376953 -350.42791016 524.70376953 -351.10791016 524.36376953 C-351.10791016 523.37376953 -351.10791016 522.38376953 -351.10791016 521.36376953 C-352.46860502 518.74995611 -353.87009704 516.2158126 -355.35791016 513.67626953 C-364.10791016 498.58465715 -364.10791016 498.58465715 -364.10791016 495.36376953 C-364.76791016 495.03376953 -365.42791016 494.70376953 -366.10791016 494.36376953 C-367.13936387 493.05461674 -368.14333181 491.72294811 -369.10791016 490.36376953 C-368.44791016 490.36376953 -367.78791016 490.36376953 -367.10791016 490.36376953 C-369.58291016 484.91876953 -369.58291016 484.91876953 -372.10791016 479.36376953 C-372.76791016 479.36376953 -373.42791016 479.36376953 -374.10791016 479.36376953 C-374.21232422 478.39181641 -374.31673828 477.41986328 -374.42431641 476.41845703 C-375.07103543 471.90619948 -376.50800207 467.76549227 -378.04541016 463.48876953 C-378.44276367 462.33248047 -378.44276367 462.33248047 -378.84814453 461.15283203 C-380.02948921 457.01294803 -380.02948921 457.01294803 -383.10791016 454.36376953 C-383.35474708 452.24012082 -383.59276453 450.11506732 -383.78564453 447.98583984 C-384.34220106 443.45749353 -385.66296904 439.13327363 -386.85791016 434.73876953 C-390.65665176 420.11591663 -393.050648 405.3133449 -395.10791016 390.36376953 C-395.24213379 389.4030957 -395.37635742 388.44242188 -395.51464844 387.45263672 C-399.49771647 357.30232427 -398.12107366 325.65991165 -394.47167969 295.55126953 C-393.89508558 290.49891201 -393.49414561 285.43375738 -393.10791016 280.36376953 C-392.44791016 280.36376953 -391.78791016 280.36376953 -391.10791016 280.36376953 C-391.07560303 279.81156738 -391.0432959 279.25936523 -391.01000977 278.69042969 C-390.39971629 270.82743088 -388.58316377 263.37420149 -386.67041016 255.73876953 C-386.3578125 254.46775391 -386.04521484 253.19673828 -385.72314453 251.88720703 C-385.12166189 249.44567071 -384.51592219 247.00517792 -383.90527344 244.56591797 C-383.4294687 242.65512344 -382.96145511 240.74232192 -382.50976562 238.82568359 C-381.69676609 235.39089963 -380.68617886 232.49906987 -379.10791016 229.36376953 C-378.31590969 227.38673009 -377.54470866 225.40130589 -376.78759766 223.41064453 C-372.0649035 211.1099301 -367.37845398 198.92190324 -361.13232422 187.29492188 C-360.00661671 185.17281835 -358.9271145 183.03050638 -357.85009766 180.88330078 C-345.05912548 155.61454081 -328.276883 132.58893856 -309.21337891 111.68798828 C-307.3681346 109.65103028 -305.57709346 107.58106106 -303.79541016 105.48876953 C-296.41700454 97.05387166 -288.44888905 89.39882106 -279.67431641 82.43408203 C-277.31326803 80.52943114 -275.08576134 78.5458882 -272.85791016 76.48876953 C-252.18651219 57.95071869 -227.11422286 44.27499704 -202.58447266 31.66992188 C-200.40923638 30.52269059 -198.28729646 29.3212275 -196.17041016 28.07080078 C-193.56953025 26.62107563 -191.91047323 26.03481046 -189.10791016 25.36376953 C-187.80251749 24.86669351 -186.50714102 24.34276971 -185.22119141 23.79736328 C-168.18086916 16.70144095 -150.75338922 10.90582839 -132.85791016 6.36376953 C-132.04257812 6.15598877 -131.22724609 5.94820801 -130.38720703 5.73413086 C-126.55117327 4.80164818 -123.08825217 4.10902764 -119.10791016 4.36376953 C-118.77791016 3.70376953 -118.44791016 3.04376953 -118.10791016 2.36376953 C-115.77385813 1.93968202 -113.52691436 1.64992859 -111.17041016 1.42626953 C-109.57650069 1.26507822 -107.98275938 1.10221837 -106.38916016 0.93798828 C-105.52548828 0.84952637 -104.66181641 0.76106445 -103.77197266 0.66992188 C-101.15105456 0.36872766 -98.55725936 -0.0171986 -95.95166016 -0.42919922 C-64.67634677 -5.10070173 -31.26968814 -4.44484626 0 0 Z M-224.26324368 208.40380287 C-226.8217404 212.50918728 -226.66785953 215.78829259 -226.62257385 220.53573608 C-226.62951938 221.46203563 -226.63646491 222.38833518 -226.64362091 223.34270442 C-226.66192431 226.44811522 -226.65161709 229.55276497 -226.64135742 232.65820312 C-226.64841424 234.8840136 -226.65715825 237.10981927 -226.66746521 239.33561707 C-226.68999677 245.38319719 -226.68701037 251.43051607 -226.67814374 257.47812223 C-226.67303874 262.52543311 -226.68032256 267.57269468 -226.68761581 272.62000048 C-226.70560017 285.20817676 -226.69919202 297.79619668 -226.68144601 310.38435669 C-226.66675435 321.31107635 -226.68136986 332.2375209 -226.71021617 343.16420512 C-226.73962788 354.38883555 -226.7500691 365.61334226 -226.74103397 376.83802092 C-226.73610208 383.13776446 -226.7383347 389.43729421 -226.75882149 395.73701096 C-226.77716538 401.6616386 -226.77123502 407.5857549 -226.74662209 413.510355 C-226.74161001 415.68436871 -226.74511414 417.85842129 -226.75777054 420.03240395 C-226.77368769 423.0014699 -226.75876193 425.96884936 -226.73609924 428.93783569 C-226.74793497 429.79728047 -226.7597707 430.65672524 -226.77196509 431.5422138 C-226.67689715 437.67687537 -225.14527332 440.72516884 -221.10791016 445.36376953 C-217.267504 447.58988976 -213.10727154 447.94194528 -208.74462891 448.54736328 C-208.03498489 448.64839859 -207.32534088 448.7494339 -206.5941925 448.85353088 C-204.32872193 449.17538942 -202.06221821 449.48898171 -199.79541016 449.80126953 C-167.74895778 454.25596863 -136.82660598 460.92587337 -108.10791016 476.36376953 C-107.20564697 476.8370166 -107.20564697 476.8370166 -106.28515625 477.31982422 C-88.78004078 486.53304289 -74.26291401 498.99434334 -62.86108398 515.18701172 C-58.88921172 521.29118073 -58.88921172 521.29118073 -52.95947266 525.07861328 C-52.22470703 525.15208984 -51.48994141 525.22556641 -50.73291016 525.30126953 C-50.00330078 525.39279297 -49.27369141 525.48431641 -48.52197266 525.57861328 C-44.07137917 525.18252486 -41.00267879 523.38834019 -38.08837891 520.05126953 C-37.49669922 519.16439453 -36.90501953 518.27751953 -36.29541016 517.36376953 C-8.75423306 477.79610489 35.12498814 461.22068608 81.03271484 452.51611328 C86.04998851 451.62631032 91.07025534 450.92208329 96.12646484 450.30517578 C96.82422028 450.21953369 97.52197571 450.1338916 98.24087524 450.0456543 C101.66631377 449.6304316 105.09234735 449.23910913 108.52441406 448.8828125 C117.91000609 447.92123706 117.91000609 447.92123706 125.89208984 443.36376953 C128.87403072 437.82602702 129.32235757 433.30853119 129.27304077 427.08969116 C129.27772074 426.17660584 129.28240072 425.26352052 129.2872225 424.32276595 C129.29915392 421.27427275 129.28972248 418.22623062 129.28027344 415.17773438 C129.2843399 412.98779539 129.28968219 410.79785846 129.29620361 408.60792542 C129.30987246 402.66805977 129.30458068 396.72835055 129.29506636 390.78848219 C129.28746951 384.57282052 129.29451527 378.35717221 129.29922485 372.14151001 C129.30503096 361.03748609 129.29571188 349.93352371 129.28044684 338.82951196 C129.26703761 328.7637475 129.26937807 318.69808681 129.28320312 308.63232422 C129.29926002 296.93615543 129.30523297 285.24004718 129.29636633 273.54386866 C129.29168672 267.35493835 129.29107312 261.16607951 129.3009758 254.97715378 C129.30963229 249.16095539 129.30364752 243.34495332 129.28629303 237.52877617 C129.28232153 235.39262277 129.28347353 233.25645289 129.29008102 231.12030602 C129.29826002 228.20794007 129.28801893 225.29620613 129.27304077 222.38388062 C129.27973294 221.53553819 129.2864251 220.68719577 129.29332006 219.813146 C129.23336919 213.81720588 127.95646705 210.54958069 123.76708984 206.11376953 C115.55781878 201.11682192 105.53156398 204.11741202 96.64404297 205.74194336 C94.26786214 206.17612841 91.88912663 206.59279123 89.50927734 207.00634766 C87.97784858 207.27682179 86.44659199 207.54827305 84.91552734 207.82080078 C83.86369766 208.00688652 83.86369766 208.00688652 82.7906189 208.19673157 C75.35846689 209.16294956 75.35846689 209.16294956 68.89208984 212.36376953 C67.94205078 212.48880859 66.99201172 212.61384766 66.01318359 212.74267578 C37.14427696 216.56302131 6.42275002 231.13383366 -16.10791016 249.36376953 C-17.07470703 250.11658203 -18.04150391 250.86939453 -19.03759766 251.64501953 C-24.70385969 256.12889084 -29.59076394 260.73294902 -34.10791016 266.36376953 C-35.16365234 267.641875 -35.16365234 267.641875 -36.24072266 268.94580078 C-40.67227212 274.33266446 -40.67227212 274.33266446 -44.10791016 280.36376953 C-45.4158273 282.71229228 -46.76449518 285.03518357 -48.10791016 287.36376953 C-50.39644725 284.415474 -52.35849648 281.36458588 -54.29541016 278.17626953 C-59.36724341 270.04424967 -59.36724341 270.04424967 -66.10791016 263.36376953 C-69.27301499 263.04499864 -69.27301499 263.04499864 -72.10791016 263.36376953 C-70.12791016 262.37376953 -70.12791016 262.37376953 -68.10791016 261.36376953 C-69.25115855 260.36081533 -70.39758207 259.36147926 -71.54541016 258.36376953 C-72.50253906 257.52845703 -72.50253906 257.52845703 -73.47900391 256.67626953 C-74.88904195 255.25919888 -74.88904195 255.25919888 -76.10791016 255.36376953 C-76.87103516 254.39439453 -77.63416016 253.42501953 -78.42041016 252.42626953 C-80.59966439 249.7412285 -81.73345215 249.10193222 -85.10791016 248.36376953 C-86.77457682 246.69710286 -88.44124349 245.0304362 -90.10791016 243.36376953 C-96.39537713 238.34989406 -96.39537713 238.34989406 -104.10791016 237.36376953 C-103.61291016 236.37376953 -103.61291016 236.37376953 -103.10791016 235.36376953 C-118.00762467 226.55030839 -118.00762467 226.55030839 -134.10791016 222.36376953 C-135.09791016 221.70376953 -136.08791016 221.04376953 -137.10791016 220.36376953 C-139.17701608 220.33627475 -139.17701608 220.33627475 -141.29541016 220.73876953 C-143.18259766 221.04814453 -143.18259766 221.04814453 -145.10791016 221.36376953 C-145.10791016 220.70376953 -145.10791016 220.04376953 -145.10791016 219.36376953 C-144.44791016 219.03376953 -143.78791016 218.70376953 -143.10791016 218.36376953 C-149.27436395 215.83723638 -153.54383403 215.05095431 -160.10791016 216.36376953 C-160.10791016 215.37376953 -160.10791016 214.38376953 -160.10791016 213.36376953 C-161.20103516 213.24001953 -162.29416016 213.11626953 -163.42041016 212.98876953 C-167.10791016 212.36376953 -167.10791016 212.36376953 -170.10791016 210.36376953 C-172.2407537 209.93831313 -174.39011855 209.59239291 -176.54541016 209.30126953 C-183.65393651 208.32273519 -183.65393651 208.32273519 -187.10791016 207.36376953 C-187.10791016 208.02376953 -187.10791016 208.68376953 -187.10791016 209.36376953 C-188.42791016 208.70376953 -189.74791016 208.04376953 -191.10791016 207.36376953 C-191.10791016 207.03376953 -191.10791016 206.70376953 -191.10791016 206.36376953 C-194.52391163 205.85915328 -197.94080956 205.36088377 -201.35791016 204.86376953 C-202.81003906 204.64914062 -202.81003906 204.64914062 -204.29150391 204.43017578 C-205.22607422 204.29482422 -206.16064453 204.15947266 -207.12353516 204.02001953 C-207.98237305 203.89433594 -208.84121094 203.76865234 -209.72607422 203.63916016 C-215.89243402 202.92619851 -219.74100414 204.12348182 -224.26324368 208.40380287 Z " fill="#4C9FFA" transform="translate(561.10791015625,166.63623046875)"/>
<path d="M0 0 C22.53766075 3.06727783 22.53766075 3.06727783 32.875 5.4375 C34.30078369 5.75509277 34.30078369 5.75509277 35.75537109 6.07910156 C42.56490028 7.61640262 49.31568732 9.32611866 56.0390625 11.203125 C58.68268094 11.91460015 61.30946136 12.49989988 64 13 C64 13.66 64 14.32 64 15 C64.72743408 15.12221924 65.45486816 15.24443848 66.2043457 15.37036133 C68.96375055 15.99183588 71.18178605 16.86265219 73.73046875 18.07421875 C74.6117041 18.49195557 75.49293945 18.90969238 76.40087891 19.34008789 C77.32046387 19.78473389 78.24004883 20.22937988 79.1875 20.6875 C80.12770996 21.13794678 81.06791992 21.58839355 82.03662109 22.05249023 C87.62840202 24.76096359 93.03689832 27.56598005 98.2578125 30.94140625 C100.1280876 32.16624061 100.1280876 32.16624061 103 33 C104.13886783 34.10435668 105.26979538 35.21787803 106.36328125 36.3671875 C108.40025273 38.39929747 110.57405614 40.24255554 112.75 42.125 C123.53786835 51.80683133 132.11900946 63.45336527 137.3125 77 C137.55508545 77.62801514 137.7976709 78.25603027 138.04760742 78.90307617 C141.88717049 89.51785976 142.28634553 100.1030121 142.22705078 111.29370117 C142.22648545 112.80269361 142.22680561 114.31168659 142.22793579 115.82067871 C142.22850554 119.88399653 142.216813 123.94719433 142.20278788 128.01048446 C142.19021697 132.26921578 142.18910503 136.52795038 142.18673706 140.78669739 C142.18054088 148.83640673 142.16415546 156.88606122 142.14403808 164.93574649 C142.12162088 174.10631514 142.11067106 183.27688652 142.10064721 192.44747579 C142.07978742 211.29834819 142.04464794 230.14916967 142 249 C141.34 249.33 140.68 249.66 140 250 C139.45859375 249.26265625 138.9171875 248.5253125 138.359375 247.765625 C129.34100057 237.19441789 113.06407381 229.25534261 100.32641602 224.0222168 C97.68937976 222.86351486 95.17234792 221.53619622 92.62109375 220.19921875 C85.87705938 216.81594616 78.97563164 214.34075812 71.8125 212 C71.16415192 211.78655945 70.51580383 211.5731189 69.84780884 211.35321045 C49.75360802 204.76087827 29.49675987 200.41640874 8.5793457 197.38549805 C5.7135687 196.9571912 2.85768341 196.47907359 0 196 C-0.13051488 177.92846361 -0.26090671 159.85692633 -0.39115143 141.78538799 C-0.45162697 133.3947667 -0.51214302 125.00414571 -0.57275391 116.61352539 C-0.62557234 109.30163293 -0.6783153 101.98973992 -0.73096704 94.67784625 C-0.75885715 90.80503825 -0.78678545 86.93223053 -0.81480408 83.05942345 C-0.84116205 79.41599086 -0.86741931 75.77255756 -0.89359856 72.12912369 C-0.90783935 70.15087584 -0.92218761 68.17262877 -0.9365387 66.19438171 C-0.94495285 65.02069031 -0.953367 63.8469989 -0.96203613 62.63774109 C-0.97309765 61.10433846 -0.97309765 61.10433846 -0.98438263 59.539958 C-1.00660787 55.92531779 -0.97559627 52.31634979 -0.90820312 48.70239258 C-0.88818237 47.62149857 -0.86816162 46.54060455 -0.84753418 45.42695618 C-0.81472351 43.67840584 -0.81472351 43.67840584 -0.78125 41.89453125 C-0.75905396 40.70018967 -0.73685791 39.50584808 -0.71398926 38.27531433 C-0.64291966 34.45437132 -0.57146418 30.63343564 -0.5 26.8125 C-0.45179753 24.22460985 -0.40362013 21.63671923 -0.35546875 19.04882812 C-0.2372702 12.6992133 -0.11875468 6.34960445 0 0 Z " fill="#4C9FFA" transform="translate(358,396)"/>
<path d="M0 0 C0 64.68 0 129.36 0 196 C-24 200 -24 200 -29 200 C-29.33 200.99 -29.66 201.98 -30 203 C-30.99 203.33 -31.98 203.66 -33 204 C-33 203.34 -33 202.68 -33 202 C-34.98 202 -36.96 202 -39 202 C-39.33 202.66 -39.66 203.32 -40 204 C-41.765625 204.421875 -41.765625 204.421875 -44.25 204.75 C-73.58279274 209.72677203 -106.55408449 222.3488402 -130 241 C-130.66 241.99 -131.32 242.98 -132 244 C-134.85310994 245.67251273 -137.93241357 246.77803582 -141 248 C-141.09370746 228.04961369 -141.16410805 208.09927244 -141.20724869 188.1487112 C-141.22781777 178.88397778 -141.25582939 169.61938161 -141.30175781 160.35473633 C-141.34179964 152.27363504 -141.36747384 144.19263322 -141.37635398 136.11143547 C-141.38153956 131.83793789 -141.39360757 127.56472473 -141.42292023 123.29131889 C-141.45036453 119.25705454 -141.45838743 115.22318781 -141.45243073 111.18883896 C-141.45351816 109.71962754 -141.46129763 108.25040078 -141.4768219 106.78127098 C-141.69037085 85.50223903 -134.45833583 68.42571196 -121 52 C-120.01 50.77990234 -120.01 50.77990234 -119 49.53515625 C-93.19349055 19.09804329 -39.24513421 0 0 0 Z " fill="#4C9FF9" transform="translate(665,396)"/>
<path d="M0 0 C0.33 0 0.66 0 1 0 C2.17953992 12.34274713 2.12882145 24.63727082 2.09765625 37.0234375 C2.09578742 39.2230323 2.09436572 41.42262753 2.09336853 43.6222229 C2.08957995 49.36614158 2.0797816 55.11003432 2.06866455 60.85394287 C2.05837107 66.73335418 2.05385403 72.61276975 2.04882812 78.4921875 C2.03815548 89.99480296 2.02112388 101.49739931 2 113 C1.01 113.495 1.01 113.495 0 114 C-0.66 112.68 -1.32 111.36 -2 110 C-1.34 110 -0.68 110 0 110 C0 73.7 0 37.4 0 0 Z " fill="#74B9FB" transform="translate(498,532)"/>
<path d="M0 0 C-0.66 0 -1.32 0 -2 0 C-2 0.66 -2 1.32 -2 2 C-44.16882488 10.84312009 -44.16882488 10.84312009 -61 10 C-61 9.67 -61 9.34 -61 9 C-59.69804688 8.86722656 -58.39609375 8.73445312 -57.0546875 8.59765625 C-55.32811487 8.41936886 -53.60155293 8.24097798 -51.875 8.0625 C-51.0190625 7.97548828 -50.163125 7.88847656 -49.28125 7.79882812 C-41.40837608 7.28449317 -41.40837608 7.28449317 -34 5 C-31.99199544 5.28112064 -29.98985949 5.61067967 -28 6 C-28 5.34 -28 4.68 -28 4 C-24.08638031 3.13144793 -20.16872948 2.28267221 -16.25 1.4375 C-15.13882813 1.19064453 -14.02765625 0.94378906 -12.8828125 0.68945312 C-11.81289063 0.46064453 -10.74296875 0.23183594 -9.640625 -0.00390625 C-8.65610352 -0.21861572 -7.67158203 -0.4333252 -6.65722656 -0.65454102 C-4.05664939 -0.99263516 -2.45708642 -0.83856995 0 0 Z " fill="#67ACF6" transform="translate(599,851)"/>
<path d="M0 0 C1.3329765 3.69369719 0.64653003 6.14526516 -0.43359375 9.859375 C-0.75263672 10.97441406 -1.07167969 12.08945312 -1.40039062 13.23828125 C-1.74263672 14.39714844 -2.08488281 15.55601562 -2.4375 16.75 C-2.77587891 17.92433594 -3.11425781 19.09867188 -3.46289062 20.30859375 C-4.29982579 23.2083973 -5.14582331 26.10523732 -6 29 C-6.66 28.34 -7.32 27.68 -8 27 C-7.4763933 23.91072049 -6.80583666 21.02188747 -6 18 C-5.65611906 16.69013854 -5.3123787 15.38024016 -4.96875 14.0703125 C-3.9941674 10.37607632 -3.0007497 6.68722825 -2 3 C-1.34 3 -0.68 3 0 3 C0 2.01 0 1.02 0 0 Z " fill="#52A0F6" transform="translate(850,595)"/>
<path d="M0 0 C5.02474293 0.61830949 9.24720494 2.12976776 13.875 4.0625 C14.56335938 4.34416016 15.25171875 4.62582031 15.9609375 4.91601562 C17.64289909 5.60515266 19.32177697 6.30180798 21 7 C19.3046875 8.109375 19.3046875 8.109375 17 9 C14.6328125 8.390625 14.6328125 8.390625 12.125 7.25 C9.20871858 5.9620116 6.50338396 4.85188645 3.4375 3.9375 C2.633125 3.628125 1.82875 3.31875 1 3 C0.67 2.01 0.34 1.02 0 0 Z " fill="#59A6FA" transform="translate(418,628)"/>
<path d="M0 0 C1.46833933 0.38535602 2.93315469 0.78434023 4.39453125 1.1953125 C5.51891602 1.49501953 5.51891602 1.49501953 6.66601562 1.80078125 C8.5161545 2.29572286 10.36203925 2.80651726 12.20703125 3.3203125 C12.20703125 3.9803125 12.20703125 4.6403125 12.20703125 5.3203125 C13.19703125 5.6503125 14.18703125 5.9803125 15.20703125 6.3203125 C11.45870773 7.56975367 10.75425864 6.85127383 7.20703125 5.3203125 C4.77670639 4.58773933 2.33861873 3.88057067 -0.10546875 3.1953125 C-1.35972656 2.84210937 -2.61398437 2.48890625 -3.90625 2.125 C-4.85886719 1.85945312 -5.81148438 1.59390625 -6.79296875 1.3203125 C-3.79296875 -0.6796875 -3.79296875 -0.6796875 0 0 Z " fill="#5FA7F6" transform="translate(418.79296875,846.6796875)"/>
<path d="M0 0 C4.55315948 0.61811534 8.28459767 2.46765893 12.3125 4.5625 C13.28026367 5.0565332 13.28026367 5.0565332 14.26757812 5.56054688 C15.84785228 6.36824255 17.42432105 7.18337613 19 8 C19 8.33 19 8.66 19 9 C12.47464703 8.56497647 6.61396845 6.36061087 1 3 C0.67 2.01 0.34 1.02 0 0 Z " fill="#5CA6F7" transform="translate(659,196)"/>
<path d="M0 0 C6.30782486 0.41137988 11.71452158 2.4965986 17 6 C17.33 6.99 17.66 7.98 18 9 C13.64029169 7.65150163 9.68658562 5.95092154 5.625 3.875 C4.56539063 3.33617187 3.50578125 2.79734375 2.4140625 2.2421875 C1.61742187 1.83226562 0.82078125 1.42234375 0 1 C0 0.67 0 0.34 0 0 Z " fill="#5BA4F6" transform="translate(355,824)"/>
<path d="M0 0 C6.97986313 0.31021614 12.07291522 3.4951958 18 7 C18 7.66 18 8.32 18 9 C11.67082789 6.99318933 5.5504332 4.7002888 0 1 C0 0.67 0 0.34 0 0 Z " fill="#53A1F9" transform="translate(455,617)"/>
<path d="M0 0 C3 1 3 1 4.82421875 4.16015625 C5.45553148 5.45600869 6.07625399 6.75706229 6.6875 8.0625 C7.00783203 8.72572266 7.32816406 9.38894531 7.65820312 10.07226562 C8.4478598 11.71050858 9.22512362 13.35471454 10 15 C9.34 15.66 8.68 16.32 8 17 C6.66161267 14.54429825 5.32913768 12.08570084 4 9.625 C3.6184375 8.92632813 3.236875 8.22765625 2.84375 7.5078125 C0 2.2265625 0 2.2265625 0 0 Z " fill="#5AA4F6" transform="translate(198,664)"/>
<path d="M0 0 C0.33 0 0.66 0 1 0 C1.33868777 2.20751848 1.67071689 4.41605911 2 6.625 C2.185625 7.85476563 2.37125 9.08453125 2.5625 10.3515625 C2.95402516 13.6166027 3.08080924 16.71712451 3 20 C2.01 20 1.02 20 0 20 C-0.19656224 17.79245484 -0.38185459 15.58390461 -0.5625 13.375 C-0.66691406 12.14523437 -0.77132812 10.91546875 -0.87890625 9.6484375 C-0.99191061 6.24372538 -0.69045563 3.32441602 0 0 Z " fill="#509FF6" transform="translate(855,448)"/>
<path d="M0 0 C0.66 0.66 1.32 1.32 2 2 C1.36191406 1.98839844 0.72382812 1.97679687 0.06640625 1.96484375 C-0.75988281 1.95582031 -1.58617187 1.94679688 -2.4375 1.9375 C-3.26121094 1.92589844 -4.08492187 1.91429687 -4.93359375 1.90234375 C-6.99163938 1.76732652 -6.99163938 1.76732652 -8 3 C-10.18639453 3.07258946 -12.37500389 3.08373783 -14.5625 3.0625 C-16.35880859 3.04896484 -16.35880859 3.04896484 -18.19140625 3.03515625 C-19.11824219 3.02355469 -20.04507813 3.01195312 -21 3 C-16.5383548 -1.4616452 -6.00993409 -0.59694632 0 0 Z " fill="#4297F8" transform="translate(681,368)"/>
<path d="M0 0 C9.85221305 0.18979745 9.85221305 0.18979745 14.1875 3.25 C16.13405903 6.20339991 16.4936075 7.54474753 16 11 C15.1646875 9.8553125 15.1646875 9.8553125 14.3125 8.6875 C10.23269655 3.9461068 5.98391755 2.52531232 0 1 C0 0.67 0 0.34 0 0 Z " fill="#5EA9F8" transform="translate(674,369)"/>
<path d="M0 0 C0.54269531 0.37640625 1.08539062 0.7528125 1.64453125 1.140625 C-0.64325913 2.17102667 -2.93498011 3.19014518 -5.23046875 4.203125 C-6.20693359 4.64495117 -6.20693359 4.64495117 -7.203125 5.09570312 C-8.89557416 5.83724013 -10.6241545 6.49501501 -12.35546875 7.140625 C-13.01546875 6.810625 -13.67546875 6.480625 -14.35546875 6.140625 C-12.91094197 3.25157144 -10.93355986 2.75360571 -8.04296875 1.390625 C-7.07746094 0.92140625 -6.11195313 0.4521875 -5.1171875 -0.03125 C-2.35546875 -0.859375 -2.35546875 -0.859375 0 0 Z " fill="#5DA6F7" transform="translate(657.35546875,829.859375)"/>
<path d="M0 0 C6.20104812 -0.27560214 11.93184478 0.77100654 18 2 C18 2.33 18 2.66 18 3 C16.41773035 3.19627391 14.83410729 3.38165538 13.25 3.5625 C12.36828125 3.66691406 11.4865625 3.77132812 10.578125 3.87890625 C8.11567549 3.99456676 6.33461936 3.73638695 4 3 C4 2.34 4 1.68 4 1 C2.68 0.67 1.36 0.34 0 0 Z " fill="#51A0F9" transform="translate(367,617)"/>
<path d="M0 0 C-0.99 0.495 -0.99 0.495 -2 1 C-2 1.66 -2 2.32 -2 3 C-8.75 2.25 -8.75 2.25 -11 0 C-13.32275177 -0.40047444 -15.65739357 -0.7397104 -18 -1 C-18 -1.33 -18 -1.66 -18 -2 C-11.20292787 -3.38458877 -6.47913427 -2.35001386 0 0 Z " fill="#6BB1FA" transform="translate(376,373)"/>
<path d="M0 0 C7.75 0.875 7.75 0.875 10 2 C10 2.66 10 3.32 10 4 C11.423125 4.185625 11.423125 4.185625 12.875 4.375 C16 5 16 5 18 7 C12.60204011 5.84941444 7.29012667 4.57578241 2 3 C2 2.34 2 1.68 2 1 C1.34 0.67 0.68 0.34 0 0 Z " fill="#61AAF9" transform="translate(408,599)"/>
<path d="M0 0 C0 0.33 0 0.66 0 1 C-6.74153283 2.25841946 -13.13484138 3.26404456 -20 3 C-20.33 2.34 -20.66 1.68 -21 1 C-18.36 1.33 -15.72 1.66 -13 2 C-13 1.34 -13 0.68 -13 0 C-8.37078475 -1.0161692 -4.65537393 -0.83796731 0 0 Z " fill="#66ABF6" transform="translate(584,855)"/>
<path d="M0 0 C6.14830711 1.20555041 8.35248219 2.91558124 12 8 C11.01 8.33 10.02 8.66 9 9 C9 8.34 9 7.68 9 7 C8.2575 6.7525 7.515 6.505 6.75 6.25 C3.78592854 4.90269479 2.12500716 3.43982304 0 1 C0 0.67 0 0.34 0 0 Z " fill="#5CA8FA" transform="translate(460,647)"/>
<path d="M0 0 C4.52671196 0.53255435 7.4200555 2.21559872 11 5 C12.375 7.25 12.375 7.25 13 9 C9.91220974 7.53400783 7.09532795 5.82973607 4.25 3.9375 C3.45078125 3.41027344 2.6515625 2.88304687 1.828125 2.33984375 C1.22484375 1.89769531 0.6215625 1.45554687 0 1 C0 0.67 0 0.34 0 0 Z " fill="#5CA4F4" transform="translate(306,794)"/>
<path d="M0 0 C3.3 0.33 6.6 0.66 10 1 C10 1.66 10 2.32 10 3 C11.65 3 13.3 3 15 3 C15 3.33 15 3.66 15 4 C10.05 3.67 5.1 3.34 0 3 C0 2.01 0 1.02 0 0 Z " fill="#62A9F7" transform="translate(364,590)"/>
<path d="M0 0 C0 0.66 0 1.32 0 2 C0.66 2.33 1.32 2.66 2 3 C0.24929483 2.88529863 -1.50057536 2.75780972 -3.25 2.625 C-4.22453125 2.55539062 -5.1990625 2.48578125 -6.203125 2.4140625 C-8.89633189 2.01534751 -10.66963279 1.36492937 -13 0 C-8.38926889 -1.29676812 -4.66159911 -0.71109139 0 0 Z " fill="#60A9FA" transform="translate(392,594)"/>
<path d="M0 0 C2.20004472 0.41780398 4.38631928 0.9093008 6.5625 1.4375 C7.76003906 1.72496094 8.95757812 2.01242187 10.19140625 2.30859375 C11.11824219 2.53675781 12.04507812 2.76492188 13 3 C13 3.33 13 3.66 13 4 C8.6835078 4.76173392 5.25566547 5.16063604 1 4 C1 3.34 1 2.68 1 2 C0.34 1.67 -0.32 1.34 -1 1 C-0.67 0.67 -0.34 0.34 0 0 Z " fill="#5FA9FA" transform="translate(386,619)"/>
<path d="M0 0 C-1 2 -1 2 -2.92578125 2.703125 C-3.71339844 2.88359375 -4.50101562 3.0640625 -5.3125 3.25 C-6.09238281 3.44078125 -6.87226563 3.6315625 -7.67578125 3.828125 C-10.40528247 4.02997047 -11.69765978 3.41196151 -14 2 C-12.23225581 1.46877637 -10.46065917 0.95035927 -8.6875 0.4375 C-7.70136719 0.14746094 -6.71523438 -0.14257812 -5.69921875 -0.44140625 C-3 -1 -3 -1 0 0 Z " fill="#61AAF8" transform="translate(428,175)"/>
<path d="M0 0 C1.3805087 3.76668598 0.59568159 6.44789173 -0.4375 10.25 C-0.72496094 11.32765625 -1.01242187 12.4053125 -1.30859375 13.515625 C-1.53675781 14.33546875 -1.76492188 15.1553125 -2 16 C-2.33 16 -2.66 16 -3 16 C-3.0272415 14.58344207 -3.04650467 13.16672955 -3.0625 11.75 C-3.07410156 10.96109375 -3.08570313 10.1721875 -3.09765625 9.359375 C-3.00385306 7.09308998 -2.63241063 5.1711105 -2 3 C-1.34 3 -0.68 3 0 3 C0 2.01 0 1.02 0 0 Z " fill="#64AAF7" transform="translate(850,595)"/>
<path d="M0 0 C1.07310858 3.27185553 0.89263102 5.42947592 0.0625 8.75 C-0.22947266 9.94882812 -0.22947266 9.94882812 -0.52734375 11.171875 C-0.68332031 11.77515625 -0.83929687 12.3784375 -1 13 C-3.20080053 9.6987992 -3.21218749 9.10898842 -2.75 5.375 C-2.66234375 4.57835937 -2.5746875 3.78171875 -2.484375 2.9609375 C-2.24460937 1.99027344 -2.24460937 1.99027344 -2 1 C-1.34 0.67 -0.68 0.34 0 0 Z " fill="#5FA9F7" transform="translate(853,582)"/>
<path d="M0 0 C3.81287042 1.44626119 5.32707177 3.30194812 7 7 C6.57421875 9.1640625 6.57421875 9.1640625 6 11 C4.9944239 9.54550599 3.99569565 8.08627557 3 6.625 C2.443125 5.81289063 1.88625 5.00078125 1.3125 4.1640625 C0 2 0 2 0 0 Z " fill="#5CA5F6" transform="translate(214,693)"/>
<path d="M0 0 C1.32 0.33 2.64 0.66 4 1 C2.25 6.75 2.25 6.75 0 9 C-0.66 8.67 -1.32 8.34 -2 8 C-1.125 2.25 -1.125 2.25 0 0 Z " fill="#5BA7F8" transform="translate(187,383)"/>
<path d="M0 0 C0.33 0.66 0.66 1.32 1 2 C4.02934491 2.65772428 4.02934491 2.65772428 7 3 C4.03312999 4.64826111 1.34373475 5.44271087 -2 6 C-2.66 4.35 -3.32 2.7 -4 1 C-2.68 0.67 -1.36 0.34 0 0 Z " fill="#68AEF9" transform="translate(402,378)"/>
<path d="M0 0 C1.55693206 2.33539809 2.90200646 4.57968756 4.1875 7.0625 C4.55230469 7.75472656 4.91710937 8.44695312 5.29296875 9.16015625 C5.52628906 9.76730469 5.75960937 10.37445313 6 11 C5.67 11.66 5.34 12.32 5 13 C1.88980259 11.44490129 1.30588394 9.14599312 0 6 C-0.1875 2.625 -0.1875 2.625 0 0 Z " fill="#5CA5F6" transform="translate(824,355)"/>
<path d="M0 0 C-2.88628401 1.57554035 -5.53342384 2.46276373 -8.75 3.125 C-9.54921875 3.29257812 -10.3484375 3.46015625 -11.171875 3.6328125 C-11.77515625 3.75398437 -12.3784375 3.87515625 -13 4 C-12.34 3.67 -11.68 3.34 -11 3 C-11 2.34 -11 1.68 -11 1 C-6.87831311 -0.62950412 -4.29299643 -1.26264601 0 0 Z " fill="#5BA8FB" transform="translate(606,603)"/>
<path d="M0 0 C-2.1554668 2.47878682 -3.71119485 3.57563804 -7 4 C-7.66 3.67 -8.32 3.34 -9 3 C-9.33 3.66 -9.66 4.32 -10 5 C-10.66 4.34 -11.32 3.68 -12 3 C-10.3789897 2.30314502 -8.75303934 1.61777139 -7.125 0.9375 C-6.22007812 0.55464844 -5.31515625 0.17179687 -4.3828125 -0.22265625 C-2 -1 -2 -1 0 0 Z " fill="#5DA7F9" transform="translate(602,412)"/>
<path d="M0 0 C1.35158203 0.15275391 1.35158203 0.15275391 2.73046875 0.30859375 C3.41753906 0.39238281 4.10460937 0.47617187 4.8125 0.5625 C4.8125 0.8925 4.8125 1.2225 4.8125 1.5625 C-1.1275 2.0575 -1.1275 2.0575 -7.1875 2.5625 C-7.5175 1.9025 -7.8475 1.2425 -8.1875 0.5625 C-4.98734144 -0.50421952 -3.30205706 -0.38595472 0 0 Z " fill="#5DA7F9" transform="translate(661.1875,370.4375)"/>
<path d="M0 0 C0.66 0.33 1.32 0.66 2 1 C0.84414715 4.91211733 -0.35534962 7.8745041 -3 11 C-2.53199289 6.94393835 -2.12046792 3.53411321 0 0 Z " fill="#5DA6F6" transform="translate(823,666)"/>
<path d="M0 0 C0 0.66 0 1.32 0 2 C-3.96 2 -7.92 2 -12 2 C-4.86956522 -1.56521739 -4.86956522 -1.56521739 0 0 Z " fill="#66AEF9" transform="translate(628,623)"/>
<path d="M0 0 C3.87540045 -0.17615457 6.75515269 -0.28341107 10 2 C10.33 2.99 10.66 3.98 11 5 C9.53932801 4.54917531 8.08151968 4.08906463 6.625 3.625 C5.81289063 3.36976563 5.00078125 3.11453125 4.1640625 2.8515625 C2 2 2 2 0 0 Z " fill="#61AAF9" transform="translate(435,391)"/>
<path d="M0 0 C3.5625 0.3125 3.5625 0.3125 5.5 1.8125 C5.850625 2.3075 6.20125 2.8025 6.5625 3.3125 C2.40111737 3.39409574 -1.3847484 3.29498524 -5.4375 2.3125 C-3.4375 0.3125 -3.4375 0.3125 0 0 Z " fill="#6AADF5" transform="translate(454.4375,854.6875)"/>
<path d="M0 0 C2.03144641 0.93446535 4.03533587 1.93224776 6 3 C6 3.66 6 4.32 6 5 C5.236875 4.814375 4.47375 4.62875 3.6875 4.4375 C0.91032625 3.77180827 0.91032625 3.77180827 -2 5 C-2 3.68 -2 2.36 -2 1 C-1.34 0.67 -0.68 0.34 0 0 Z " fill="#59A2F4" transform="translate(349,819)"/>
<path d="M0 0 C-1.28524261 0.86380259 -2.57842419 1.71580369 -3.875 2.5625 C-4.59429688 3.03816406 -5.31359375 3.51382813 -6.0546875 4.00390625 C-6.69664062 4.33261719 -7.33859375 4.66132812 -8 5 C-8.66 4.67 -9.32 4.34 -10 4 C-4.75 -1.425 -4.75 -1.425 0 0 Z " fill="#5BA4F7" transform="translate(687,816)"/>
<path d="M0 0 C6.52307692 0.61538462 6.52307692 0.61538462 8.9375 2.5625 C9.288125 3.036875 9.63875 3.51125 10 4 C9.01 4.495 9.01 4.495 8 5 C1.25806452 2.51612903 1.25806452 2.51612903 0 0 Z " fill="#66ADF9" transform="translate(455,617)"/>
<path d="M0 0 C8.57142857 0.85714286 8.57142857 0.85714286 12 3 C6.61802575 4.22317597 6.61802575 4.22317597 3.75 3.1875 C2 2 2 2 0 0 Z " fill="#63ACFA" transform="translate(394,403)"/>
<path d="M0 0 C3.0625 1.25 3.0625 1.25 6 3 C6.33 3.99 6.66 4.98 7 6 C3.54074837 4.7508258 0.85306797 3.32472205 -2 1 C-1.34 0.67 -0.68 0.34 0 0 Z " fill="#5EA6F7" transform="translate(340,814)"/>
<path d="M0 0 C0.33 0.66 0.66 1.32 1 2 C0.22265625 3.9453125 0.22265625 3.9453125 -0.9375 6.125 C-1.31777344 6.84945312 -1.69804688 7.57390625 -2.08984375 8.3203125 C-2.39019531 8.87460937 -2.69054687 9.42890625 -3 10 C-3.33 10 -3.66 10 -4 10 C-3.38461538 3.47692308 -3.38461538 3.47692308 -1.4375 1.0625 C-0.7259375 0.5365625 -0.7259375 0.5365625 0 0 Z " fill="#63AAF6" transform="translate(829,657)"/>
<path d="M0 0 C0.33 0.66 0.66 1.32 1 2 C1.66 2 2.32 2 3 2 C3.33 4.31 3.66 6.62 4 9 C3.67 8.34 3.34 7.68 3 7 C2.34 6.67 1.68 6.34 1 6 C-0.03145371 4.69084721 -1.03542166 3.35917857 -2 2 C-1.34 2 -0.68 2 0 2 C0 1.34 0 0.68 0 0 Z " fill="#64A9F2" transform="translate(194,655)"/>
<path d="M0 0 C1.13643966 3.40931897 0.86747764 4.00335456 -0.4375 7.1875 C-0.72496094 7.90292969 -1.01242187 8.61835937 -1.30859375 9.35546875 C-1.53675781 9.89816406 -1.76492188 10.44085937 -2 11 C-3.125 9.3125 -3.125 9.3125 -4 7 C-3.125 4.25 -3.125 4.25 -2 2 C-1.34 2 -0.68 2 0 2 C0 1.34 0 0.68 0 0 Z " fill="#61A9F7" transform="translate(840,629)"/>
<path d="M0 0 C4.455 0.99 4.455 0.99 9 2 C6 4 6 4 2.8125 3.625 C1.884375 3.41875 0.95625 3.2125 0 3 C0 2.01 0 1.02 0 0 Z " fill="#5FABFB" transform="translate(405,624)"/>
<path d="M0 0 C2.19726562 1.85546875 2.19726562 1.85546875 4.39453125 3.7109375 C5.8655046 4.89201099 7.43037794 5.95358529 9 7 C6.69 6.67 4.38 6.34 2 6 C1.34 4.02 0.68 2.04 0 0 Z " fill="#68AFF9" transform="translate(500,685)"/>
<path d="M0 0 C0.33 0 0.66 0 1 0 C1.33 4.29 1.66 8.58 2 13 C-1 10 -1 10 -1.07421875 7.51953125 C-0.94660156 6.62621094 -0.81898438 5.73289062 -0.6875 4.8125 C-0.56761719 3.91144531 -0.44773437 3.01039063 -0.32421875 2.08203125 C-0.21722656 1.39496094 -0.11023438 0.70789063 0 0 Z " fill="#6FB2F7" transform="translate(855,448)"/>
<path d="M0 0 C1.32 0.33 2.64 0.66 4 1 C1.69 2.65 -0.62 4.3 -3 6 C-3.66 5.67 -4.32 5.34 -5 5 C-2.75 2.4375 -2.75 2.4375 0 0 Z " fill="#4096F9" transform="translate(571,425)"/>
<path d="M0 0 C0.66 0.33 1.32 0.66 2 1 C0.68 2.65 -0.64 4.3 -2 6 C-3.32 5.67 -4.64 5.34 -6 5 C-4.02 3.35 -2.04 1.7 0 0 Z " fill="#5FA8F8" transform="translate(297,236)"/>
<path d="M0 0 C0.99 0.33 1.98 0.66 3 1 C2.01 2.32 1.02 3.64 0 5 C-2.475 4.01 -2.475 4.01 -5 3 C-2 1 -2 1 0 0 Z " fill="#60AAF8" transform="translate(389,185)"/>
<path d="M0 0 C1.32 1.32 2.64 2.64 4 4 C3.67 4.66 3.34 5.32 3 6 C2.34 5.67 1.68 5.34 1 5 C0.67 5.66 0.34 6.32 0 7 C0 6.01 0 5.02 0 4 C-0.66 3.67 -1.32 3.34 -2 3 C-1.34 3 -0.68 3 0 3 C0 2.01 0 1.02 0 0 Z " fill="#4F9AF0" transform="translate(212,688)"/>
<path d="M0 0 C-0.33 0.99 -0.66 1.98 -1 3 C-4.3 2.67 -7.6 2.34 -11 2 C-11 1.67 -11 1.34 -11 1 C-7.27569643 0.30710631 -3.78916254 -0.11144596 0 0 Z " fill="#6FB6FC" transform="translate(654,617)"/>
<path d="M0 0 C4.16138263 -0.08159574 7.9472484 0.01751476 12 1 C12 1.33 12 1.66 12 2 C9.36 2.33 6.72 2.66 4 3 C4 2.34 4 1.68 4 1 C2.68 0.67 1.36 0.34 0 0 Z " fill="#6CB2F9" transform="translate(367,617)"/>
<path d="M0 0 C-3.26545761 1.88391785 -6.28111761 2.49287967 -10 3 C-9.34 2.67 -8.68 2.34 -8 2 C-8 1.34 -8 0.68 -8 0 C-5.13822943 -1.43088528 -3.06624227 -0.59991697 0 0 Z " fill="#66ADF8" transform="translate(612,383)"/>
<path d="M0 0 C0.33 0 0.66 0 1 0 C1 4.29 1 8.58 1 13 C0.67 13 0.34 13 0 13 C0 8.71 0 4.42 0 0 Z " fill="#5BA5F7" transform="translate(356,457)"/>
<path d="M0 0 C0.33 0 0.66 0 1 0 C1 3.96 1 7.92 1 12 C0.67 12 0.34 12 0 12 C0 8.04 0 4.08 0 0 Z " fill="#5DA8F8" transform="translate(688,460)"/>
<path d="M0 0 C0.33 0 0.66 0 1 0 C1 3.3 1 6.6 1 10 C0.67 10 0.34 10 0 10 C0 6.7 0 3.4 0 0 Z " fill="#5CA7F8" transform="translate(688,438)"/>
<path d="M0 0 C2.475 0.495 2.475 0.495 5 1 C4.01 1.33 3.02 1.66 2 2 C1.67 2.66 1.34 3.32 1 4 C0.67 2.68 0.34 1.36 0 0 Z " fill="#5DA5F7" transform="translate(439,612)"/>
<path d="M0 0 C1.98 0 3.96 0 6 0 C5.67 0.66 5.34 1.32 5 2 C3.35 1.67 1.7 1.34 0 1 C0 0.67 0 0.34 0 0 Z " fill="#5EA0EA" transform="translate(480,862)"/>
<path d="M0 0 C0.33 0 0.66 0 1 0 C1 1.98 1 3.96 1 6 C0.34 5.01 -0.32 4.02 -1 3 C-0.67 2.01 -0.34 1.02 0 0 Z " fill="#59A4F7" transform="translate(356,482)"/>
<path d="M0 0 C0.33 0 0.66 0 1 0 C1 1.98 1 3.96 1 6 C0.67 6 0.34 6 0 6 C0 4.02 0 2.04 0 0 Z " fill="#5CA6F7" transform="translate(688,474)"/>
<path d="M0 0 C0.33 0 0.66 0 1 0 C1 1.65 1 3.3 1 5 C0.67 5 0.34 5 0 5 C0 3.35 0 1.7 0 0 Z " fill="#5FA7F9" transform="translate(688,562)"/>
<path d="M0 0 C0.33 0 0.66 0 1 0 C1 1.65 1 3.3 1 5 C0.67 5 0.34 5 0 5 C0 3.35 0 1.7 0 0 Z " fill="#5EA7F8" transform="translate(688,539)"/>
<path d="M0 0 C0.33 0 0.66 0 1 0 C1 1.65 1 3.3 1 5 C0.67 5 0.34 5 0 5 C0 3.35 0 1.7 0 0 Z " fill="#5CA6F8" transform="translate(356,529)"/>
<path d="M0 0 C0.33 0 0.66 0 1 0 C1 1.65 1 3.3 1 5 C0.67 5 0.34 5 0 5 C0 3.35 0 1.7 0 0 Z " fill="#60A9F8" transform="translate(688,491)"/>
<path d="M0 0 C0.33 0 0.66 0 1 0 C1 1.65 1 3.3 1 5 C0.67 5 0.34 5 0 5 C0 3.35 0 1.7 0 0 Z " fill="#5EA5F6" transform="translate(356,417)"/>
<path d="M0 0 C0.33 0 0.66 0 1 0 C1 1.65 1 3.3 1 5 C0.67 5 0.34 5 0 5 C0 3.35 0 1.7 0 0 Z " fill="#5FA7F7" transform="translate(688,410)"/>
<path d="M0 0 C4 1 4 1 4 1 Z " fill="#5EA4ED" transform="translate(523,863)"/>
<path d="M0 0 C0.99 0.33 1.98 0.66 3 1 C2.01 1.33 1.02 1.66 0 2 C0 1.34 0 0.68 0 0 Z " fill="#61A7F5" transform="translate(642,616)"/>
<path d="M0 0 C0.33 0.66 0.66 1.32 1 2 C0.01 1.67 -0.98 1.34 -2 1 C-1.34 0.67 -0.68 0.34 0 0 Z " fill="#60A6F6" transform="translate(419,605)"/>
<path d="M0 0 C1 4 1 4 1 4 Z " fill="#5EA6F9" transform="translate(688,586)"/>
<path d="M0 0 C1 4 1 4 1 4 Z " fill="#5DA8F8" transform="translate(688,557)"/>
<path d="M0 0 C1 4 1 4 1 4 Z " fill="#60A9F8" transform="translate(688,522)"/>
<path d="M0 0 C1 4 1 4 1 4 Z " fill="#5BA5F7" transform="translate(356,427)"/>
<path d="M0 0 C0.66 0.33 1.32 0.66 2 1 C1.01 1 0.02 1 -1 1 C-0.67 0.67 -0.34 0.34 0 0 Z " fill="#60A8F6" transform="translate(397,400)"/>
<path d="M0 0 C0.99 0.33 1.98 0.66 3 1 C2.01 1 1.02 1 0 1 C0 0.67 0 0.34 0 0 Z " fill="#5FA6F8" transform="translate(441,396)"/>
<path d="M0 0 C0.66 0.66 1.32 1.32 2 2 C1.01 1.67 0.02 1.34 -1 1 C-0.67 0.67 -0.34 0.34 0 0 Z " fill="#5FA6F6" transform="translate(684,374)"/>
<path d="M0 0 C0 3 0 3 0 3 Z " fill="#619FE6" transform="translate(287,240)"/>
<path d="M0 0 C3 1 3 1 3 1 Z " fill="#5EA2EC" transform="translate(500,863)"/>
<path d="M0 0 C0.33 0.66 0.66 1.32 1 2 C0.34 1.67 -0.32 1.34 -1 1 C-0.67 0.67 -0.34 0.34 0 0 Z " fill="#5E9FE8" transform="translate(547,862)"/>
<path d="M0 0 C3 1 3 1 3 1 Z " fill="#5B9EEB" transform="translate(539,862)"/>
<path d="M0 0 C3 1 3 1 3 1 Z " fill="#5EA0EA" transform="translate(472,861)"/>
<path d="M0 0 C0.99 0.495 0.99 0.495 2 1 C1.01 1.495 1.01 1.495 0 2 C0 1.34 0 0.68 0 0 Z " fill="#5D9FE7" transform="translate(457,859)"/>
<path d="M0 0 C3 1 3 1 3 1 Z " fill="#62A3EB" transform="translate(434,855)"/>
<path d="M0 0 C0.99 0.495 0.99 0.495 2 1 C1.01 1.495 1.01 1.495 0 2 C0 1.34 0 0.68 0 0 Z " fill="#5F9FE8" transform="translate(304,797)"/>
<path d="M0 0 C0.66 0.66 1.32 1.32 2 2 C1.34 2 0.68 2 0 2 C0 1.34 0 0.68 0 0 Z " fill="#61A8F2" transform="translate(438,632)"/>
<path d="M0 0 C3 1 3 1 3 1 Z " fill="#62AAF7" transform="translate(632,618)"/>
<path d="M0 0 C0.33 0.66 0.66 1.32 1 2 C0.34 1.67 -0.32 1.34 -1 1 C-0.67 0.67 -0.34 0.34 0 0 Z " fill="#61A2EA" transform="translate(172,598)"/>
<path d="" fill="#59A4F8" transform="translate(0,0)"/>
<path d="" fill="#5CA7F9" transform="translate(0,0)"/>
<path d="" fill="#5DA6F9" transform="translate(0,0)"/>
<path d="" fill="#61A1ED" transform="translate(0,0)"/>
<path d="" fill="#61A1EA" transform="translate(0,0)"/>
<path d="" fill="#5FA7FA" transform="translate(0,0)"/>
<path d="" fill="#5EA4F7" transform="translate(0,0)"/>
<path d="M0 0 C0.33 0.66 0.66 1.32 1 2 C0.34 1.67 -0.32 1.34 -1 1 C-0.67 0.67 -0.34 0.34 0 0 Z " fill="#5BA6F8" transform="translate(356,507)"/>
<path d="" fill="#5DA5F7" transform="translate(0,0)"/>
<path d="" fill="#5CA1EB" transform="translate(0,0)"/>
<path d="" fill="#5EA7F7" transform="translate(0,0)"/>
<path d="" fill="#5DA5F4" transform="translate(0,0)"/>
<path d="" fill="#65A4EB" transform="translate(0,0)"/>
<path d="M0 0 C0.99 0.495 0.99 0.495 2 1 C1.01 1.495 1.01 1.495 0 2 C0 1.34 0 0.68 0 0 Z " fill="#5FA6F6" transform="translate(557,432)"/>
<path d="M0 0 C0.99 0.495 0.99 0.495 2 1 C1.01 1.495 1.01 1.495 0 2 C0 1.34 0 0.68 0 0 Z " fill="#5CA5F8" transform="translate(446,398)"/>
<path d="M0 0 C3 1 3 1 3 1 Z " fill="#5FA7F9" transform="translate(619,382)"/>
<path d="M0 0 C3 1 3 1 3 1 Z " fill="#5EA7F8" transform="translate(651,375)"/>
<path d="M0 0 C0.99 0.495 0.99 0.495 2 1 C1.01 1.495 1.01 1.495 0 2 C0 1.34 0 0.68 0 0 Z " fill="#60A8F7" transform="translate(680,373)"/>
<path d="M0 0 C0.66 0 1.32 0 2 0 C1.67 0.66 1.34 1.32 1 2 C0.67 1.34 0.34 0.68 0 0 Z " fill="#5FA8FB" transform="translate(656,374)"/>
<path d="M0 0 C0.33 0.66 0.66 1.32 1 2 C0.34 1.67 -0.32 1.34 -1 1 C-0.67 0.67 -0.34 0.34 0 0 Z " fill="#5CA4F9" transform="translate(363,373)"/>
<path d="M0 0 C3 1 3 1 3 1 Z " fill="#5EA7FA" transform="translate(353,372)"/>
<path d="M0 0 C3 1 3 1 3 1 Z " fill="#63A2E7" transform="translate(278,248)"/>
<path d="M0 0 C0.99 0.495 0.99 0.495 2 1 C1.01 1.495 1.01 1.495 0 2 C0 1.34 0 0.68 0 0 Z " fill="#609EE5" transform="translate(304,228)"/>
<path d="M0 0 C0.99 0.495 0.99 0.495 2 1 C1.01 1.495 1.01 1.495 0 2 C0 1.34 0 0.68 0 0 Z " fill="#5F9FE9" transform="translate(435,169)"/>
<path d="M0 0 C2 1 2 1 2 1 Z " fill="#61A3ED" transform="translate(528,863)"/>
<path d="M0 0 C2 1 2 1 2 1 Z " fill="#5FA3EE" transform="translate(490,863)"/>
<path d="M0 0 C2 1 2 1 2 1 Z " fill="#61A1EA" transform="translate(569,859)"/>
<path d="M0 0 C2 1 2 1 2 1 Z " fill="#63A0EA" transform="translate(589,855)"/>
<path d="M0 0 C2 1 2 1 2 1 Z " fill="#62A2EA" transform="translate(602,852)"/>
<path d="" fill="#609FE9" transform="translate(0,0)"/>
<path d="" fill="#619FE8" transform="translate(0,0)"/>
<path d="M0 0 C2 1 2 1 2 1 Z " fill="#60A0E4" transform="translate(668,829)"/>
<path d="" fill="#5D9FEA" transform="translate(0,0)"/>
<path d="" fill="#5E9FE6" transform="translate(0,0)"/>
<path d="M0 0 C2 1 2 1 2 1 Z " fill="#5F9FE6" transform="translate(686,817)"/>
<path d="M0 0 C2 1 2 1 2 1 Z " fill="#5F9DE7" transform="translate(284,782)"/>
<path d="" fill="#5E9DE5" transform="translate(0,0)"/>
<path d="M0 0 C2 1 2 1 2 1 Z " fill="#5D9FEA" transform="translate(257,755)"/>
<path d="M0 0 C2 1 2 1 2 1 Z " fill="#5F9DE6" transform="translate(782,737)"/>
<path d="M0 0 C2 1 2 1 2 1 Z " fill="#609FE6" transform="translate(817,685)"/>
<path d="M0 0 C2 1 2 1 2 1 Z " fill="#59A2F4" transform="translate(557,648)"/>
<path d="M0 0 C2 1 2 1 2 1 Z " fill="#5CA6F9" transform="translate(526,647)"/>
<path d="" fill="#64A0EB" transform="translate(0,0)"/>
<path d="" fill="#5FA8F7" transform="translate(0,0)"/>
<path d="M0 0 C2 1 2 1 2 1 Z " fill="#5FA5F7" transform="translate(477,631)"/>
<path d="" fill="#5EA5F8" transform="translate(0,0)"/>
<path d="M0 0 C2 1 2 1 2 1 Z " fill="#60A8F6" transform="translate(393,619)"/>
<path d="" fill="#62A8F6" transform="translate(0,0)"/>
<path d="M0 0 C2 1 2 1 2 1 Z " fill="#60A7F6" transform="translate(382,617)"/>
<path d="" fill="#629EE8" transform="translate(0,0)"/>
<path d="M0 0 C2 1 2 1 2 1 Z " fill="#62A7F5" transform="translate(646,616)"/>
<path d="M0 0 C2 1 2 1 2 1 Z " fill="#60A7F8" transform="translate(442,615)"/>
<path d="" fill="#63A0E9" transform="translate(0,0)"/>
<path d="" fill="#5CA5F8" transform="translate(0,0)"/>
<path d="M0 0 C2 1 2 1 2 1 Z " fill="#5BA4F6" transform="translate(433,610)"/>
<path d="" fill="#5CA5F5" transform="translate(0,0)"/>
<path d="M0 0 C2 1 2 1 2 1 Z " fill="#5FA6F7" transform="translate(681,608)"/>
<path d="M0 0 C2 1 2 1 2 1 Z " fill="#61A9F6" transform="translate(597,607)"/>
<path d="M0 0 C2 1 2 1 2 1 Z " fill="#5DA3F1" transform="translate(425,607)"/>
<path d="M0 0 C2 1 2 1 2 1 Z " fill="#60A9F6" transform="translate(422,607)"/>
<path d="" fill="#5AA3F8" transform="translate(0,0)"/>
<path d="" fill="#5BA7F9" transform="translate(0,0)"/>
<path d="M0 0 C2 1 2 1 2 1 Z " fill="#61A8F8" transform="translate(629,599)"/>
<path d="M0 0 C2 1 2 1 2 1 Z " fill="#5DA5F9" transform="translate(386,597)"/>
<path d="M0 0 C2 1 2 1 2 1 Z " fill="#60A6F7" transform="translate(644,596)"/>
<path d="M0 0 C2 1 2 1 2 1 Z " fill="#5DA4F8" transform="translate(379,596)"/>
<path d="" fill="#60A7F7" transform="translate(0,0)"/>
<path d="M0 0 C2 1 2 1 2 1 Z " fill="#5EA6F7" transform="translate(374,595)"/>
<path d="" fill="#5AA5F8" transform="translate(0,0)"/>
<path d="" fill="#5EA8FA" transform="translate(0,0)"/>
<path d="" fill="#5DA7F8" transform="translate(0,0)"/>
<path d="" fill="#5DA5F8" transform="translate(0,0)"/>
<path d="" fill="#5DA8F9" transform="translate(0,0)"/>
<path d="" fill="#5DA7F9" transform="translate(0,0)"/>
<path d="" fill="#5DA8F8" transform="translate(0,0)"/>
<path d="" fill="#65A5EA" transform="translate(0,0)"/>
<path d="M0 0 C2 1 2 1 2 1 Z " fill="#62A3EA" transform="translate(163,551)"/>
<path d="" fill="#5BA6F6" transform="translate(0,0)"/>
<path d="" fill="#5CA4F7" transform="translate(0,0)"/>
<path d="" fill="#5DA4F6" transform="translate(0,0)"/>
<path d="" fill="#5BA5F8" transform="translate(0,0)"/>
<path d="" fill="#5DA5F8" transform="translate(0,0)"/>
<path d="" fill="#5FA7F7" transform="translate(0,0)"/>
<path d="" fill="#5DA7F8" transform="translate(0,0)"/>
<path d="" fill="#5AA3F7" transform="translate(0,0)"/>
<path d="" fill="#5BA5F9" transform="translate(0,0)"/>
<path d="" fill="#5DA4F4" transform="translate(0,0)"/>
<path d="" fill="#5DAAFA" transform="translate(0,0)"/>
<path d="" fill="#5FA7F9" transform="translate(0,0)"/>
<path d="" fill="#5DA7F6" transform="translate(0,0)"/>
<path d="" fill="#5EA8F7" transform="translate(0,0)"/>
<path d="" fill="#5AA6F9" transform="translate(0,0)"/>
<path d="" fill="#5FA7F8" transform="translate(0,0)"/>
<path d="" fill="#5DA5F9" transform="translate(0,0)"/>
<path d="" fill="#5BA6F6" transform="translate(0,0)"/>
<path d="" fill="#5EA6F8" transform="translate(0,0)"/>
<path d="M0 0 C2 1 2 1 2 1 Z " fill="#5CA4F3" transform="translate(540,449)"/>
<path d="" fill="#5FA6F6" transform="translate(0,0)"/>
<path d="" fill="#62A7F5" transform="translate(0,0)"/>
<path d="" fill="#5BA7F7" transform="translate(0,0)"/>
<path d="" fill="#619FE8" transform="translate(0,0)"/>
<path d="" fill="#5DA6F5" transform="translate(0,0)"/>
<path d="" fill="#5FA6F9" transform="translate(0,0)"/>
<path d="" fill="#5CA4F8" transform="translate(0,0)"/>
<path d="M0 0 C2 1 2 1 2 1 Z " fill="#61A7F6" transform="translate(496,435)"/>
<path d="" fill="#61A2E9" transform="translate(0,0)"/>
<path d="" fill="#5DA8F9" transform="translate(0,0)"/>
<path d="" fill="#5FA5F8" transform="translate(0,0)"/>
<path d="M0 0 C2 1 2 1 2 1 Z " fill="#61A4EF" transform="translate(438,416)"/>
<path d="M0 0 C2 1 2 1 2 1 Z " fill="#61A8F8" transform="translate(471,413)"/>
<path d="" fill="#5AA6F6" transform="translate(0,0)"/>
<path d="" fill="#5FA6F9" transform="translate(0,0)"/>
<path d="" fill="#5DA7F5" transform="translate(0,0)"/>
<path d="M0 0 C2 1 2 1 2 1 Z " fill="#5FA6F7" transform="translate(404,402)"/>
<path d="M0 0 C2 1 2 1 2 1 Z " fill="#62A6F1" transform="translate(390,400)"/>
<path d="" fill="#5CA6F8" transform="translate(0,0)"/>
<path d="M0 0 C2 1 2 1 2 1 Z " fill="#5EA7FA" transform="translate(592,391)"/>
<path d="M0 0 C2 1 2 1 2 1 Z " fill="#5FA7F6" transform="translate(429,391)"/>
<path d="" fill="#619FE7" transform="translate(0,0)"/>
<path d="" fill="#5DA6F9" transform="translate(0,0)"/>
<path d="M0 0 C2 1 2 1 2 1 Z " fill="#5FA8F9" transform="translate(663,373)"/>
<path d="M0 0 C2 1 2 1 2 1 Z " fill="#5FA6F9" transform="translate(360,373)"/>
<path d="" fill="#5AA5F5" transform="translate(0,0)"/>
<path d="M0 0 C2 1 2 1 2 1 Z " fill="#5C9FE9" transform="translate(822,348)"/>
<path d="M0 0 C2 1 2 1 2 1 Z " fill="#5B9CE6" transform="translate(710,219)"/>
<path d="M0 0 C2 1 2 1 2 1 Z " fill="#5D9FE9" transform="translate(704,218)"/>
<path d="M0 0 C2 1 2 1 2 1 Z " fill="#66A3E6" transform="translate(320,217)"/>
<path d="M0 0 C2 1 2 1 2 1 Z " fill="#5EA0E9" transform="translate(694,210)"/>
<path d="M0 0 C2 1 2 1 2 1 Z " fill="#60A1EA" transform="translate(677,200)"/>
<path d="M0 0 C2 1 2 1 2 1 Z " fill="#5EA2EB" transform="translate(672,200)"/>
<path d="M0 0 C2 1 2 1 2 1 Z " fill="#5A9DE8" transform="translate(638,185)"/>
<path d="M0 0 C2 1 2 1 2 1 Z " fill="#63A1EA" transform="translate(407,177)"/>
<path d="M0 0 C2 1 2 1 2 1 Z " fill="#61A1EA" transform="translate(432,170)"/>
<path d="" fill="#60A4EB" transform="translate(0,0)"/>
<path d="" fill="#61A3EC" transform="translate(0,0)"/>
<path d="" fill="#61A0EC" transform="translate(0,0)"/>
<path d="" fill="#5CA2EF" transform="translate(0,0)"/>
<path d="" fill="#5BA0ED" transform="translate(0,0)"/>
<path d="" fill="#589DEB" transform="translate(0,0)"/>
<path d="" fill="#5FA5EC" transform="translate(0,0)"/>
<path d="" fill="#5D9CE7" transform="translate(0,0)"/>
<path d="" fill="#609CE9" transform="translate(0,0)"/>
<path d="" fill="#5D9EE7" transform="translate(0,0)"/>
<path d="" fill="#5C9EEB" transform="translate(0,0)"/>
<path d="" fill="#5F9FEA" transform="translate(0,0)"/>
<path d="" fill="#5C9EEA" transform="translate(0,0)"/>
<path d="" fill="#5F9EE5" transform="translate(0,0)"/>
<path d="" fill="#5FA2EB" transform="translate(0,0)"/>
<path d="" fill="#5FA2EA" transform="translate(0,0)"/>
<path d="" fill="#5E9FEC" transform="translate(0,0)"/>
<path d="" fill="#5E9DEA" transform="translate(0,0)"/>
<path d="" fill="#61A1E8" transform="translate(0,0)"/>
<path d="" fill="#619EE8" transform="translate(0,0)"/>
<path d="" fill="#62A1EB" transform="translate(0,0)"/>
<path d="" fill="#5D9EE7" transform="translate(0,0)"/>
<path d="" fill="#5E9EE8" transform="translate(0,0)"/>
<path d="" fill="#5EA0EA" transform="translate(0,0)"/>
<path d="" fill="#639FE7" transform="translate(0,0)"/>
<path d="" fill="#589FF0" transform="translate(0,0)"/>
<path d="" fill="#5B9DE7" transform="translate(0,0)"/>
<path d="" fill="#5F9FE9" transform="translate(0,0)"/>
<path d="" fill="#5F9DE9" transform="translate(0,0)"/>
<path d="" fill="#5EA0EB" transform="translate(0,0)"/>
<path d="" fill="#5E9FE5" transform="translate(0,0)"/>
<path d="" fill="#609FE7" transform="translate(0,0)"/>
<path d="" fill="#5FA0E6" transform="translate(0,0)"/>
<path d="" fill="#5F9EE7" transform="translate(0,0)"/>
<path d="" fill="#5E9FE8" transform="translate(0,0)"/>
<path d="" fill="#60A0EB" transform="translate(0,0)"/>
<path d="" fill="#5D9DEB" transform="translate(0,0)"/>
<path d="" fill="#559AE5" transform="translate(0,0)"/>
<path d="" fill="#5F9EE8" transform="translate(0,0)"/>
<path d="" fill="#5E9CE4" transform="translate(0,0)"/>
<path d="" fill="#5F9DE7" transform="translate(0,0)"/>
<path d="" fill="#5A9EEA" transform="translate(0,0)"/>
<path d="" fill="#609DE9" transform="translate(0,0)"/>
<path d="" fill="#5B9BE8" transform="translate(0,0)"/>
<path d="" fill="#5F9FE8" transform="translate(0,0)"/>
<path d="" fill="#629FE8" transform="translate(0,0)"/>
<path d="" fill="#5B9CE6" transform="translate(0,0)"/>
<path d="" fill="#60A0EB" transform="translate(0,0)"/>
<path d="" fill="#61A1E7" transform="translate(0,0)"/>
<path d="" fill="#589CE6" transform="translate(0,0)"/>
<path d="" fill="#5F9DE4" transform="translate(0,0)"/>
<path d="" fill="#5D9FE5" transform="translate(0,0)"/>
<path d="" fill="#5F9EE9" transform="translate(0,0)"/>
<path d="" fill="#5E9FE8" transform="translate(0,0)"/>
<path d="" fill="#5D9FE7" transform="translate(0,0)"/>
<path d="" fill="#629FE2" transform="translate(0,0)"/>
<path d="" fill="#629FE7" transform="translate(0,0)"/>
<path d="" fill="#629CE7" transform="translate(0,0)"/>
<path d="" fill="#619FE6" transform="translate(0,0)"/>
<path d="" fill="#579BE6" transform="translate(0,0)"/>
<path d="" fill="#579CE6" transform="translate(0,0)"/>
<path d="" fill="#639FEA" transform="translate(0,0)"/>
<path d="" fill="#619EE7" transform="translate(0,0)"/>
<path d="" fill="#629FE9" transform="translate(0,0)"/>
<path d="" fill="#609EE8" transform="translate(0,0)"/>
<path d="" fill="#5FA0E7" transform="translate(0,0)"/>
<path d="" fill="#5F9FE8" transform="translate(0,0)"/>
<path d="" fill="#61A1EA" transform="translate(0,0)"/>
<path d="" fill="#5E9EE4" transform="translate(0,0)"/>
<path d="" fill="#609EE7" transform="translate(0,0)"/>
<path d="" fill="#5F9FE6" transform="translate(0,0)"/>
<path d="" fill="#63A0E6" transform="translate(0,0)"/>
<path d="" fill="#5E9FE7" transform="translate(0,0)"/>
<path d="" fill="#5B9BE7" transform="translate(0,0)"/>
<path d="" fill="#5E9DE7" transform="translate(0,0)"/>
<path d="" fill="#62A2E8" transform="translate(0,0)"/>
<path d="" fill="#5E9CEA" transform="translate(0,0)"/>
<path d="" fill="#61A0E8" transform="translate(0,0)"/>
<path d="" fill="#5B9DEA" transform="translate(0,0)"/>
<path d="" fill="#60A2E8" transform="translate(0,0)"/>
<path d="" fill="#64A2E7" transform="translate(0,0)"/>
<path d="" fill="#569CE9" transform="translate(0,0)"/>
<path d="" fill="#609DE5" transform="translate(0,0)"/>
<path d="" fill="#609DE9" transform="translate(0,0)"/>
<path d="" fill="#65A1E7" transform="translate(0,0)"/>
<path d="" fill="#599DE8" transform="translate(0,0)"/>
<path d="" fill="#62A1E9" transform="translate(0,0)"/>
<path d="" fill="#5FA1E6" transform="translate(0,0)"/>
<path d="" fill="#629FE4" transform="translate(0,0)"/>
<path d="" fill="#5D9FE8" transform="translate(0,0)"/>
<path d="" fill="#609CE6" transform="translate(0,0)"/>
<path d="" fill="#5F9DE7" transform="translate(0,0)"/>
<path d="" fill="#619FE8" transform="translate(0,0)"/>
<path d="" fill="#5F9CE4" transform="translate(0,0)"/>
<path d="" fill="#5EA1E8" transform="translate(0,0)"/>
<path d="" fill="#61A2ED" transform="translate(0,0)"/>
<path d="" fill="#61A2E9" transform="translate(0,0)"/>
<path d="" fill="#5FA0E9" transform="translate(0,0)"/>
<path d="" fill="#60A3E8" transform="translate(0,0)"/>
<path d="" fill="#5EA1E6" transform="translate(0,0)"/>
<path d="" fill="#61A0ED" transform="translate(0,0)"/>
<path d="" fill="#5699E9" transform="translate(0,0)"/>
<path d="" fill="#619EE7" transform="translate(0,0)"/>
<path d="" fill="#64A1E7" transform="translate(0,0)"/>
<path d="" fill="#62A2E6" transform="translate(0,0)"/>
<path d="" fill="#62A1E6" transform="translate(0,0)"/>
<path d="" fill="#5C9CE9" transform="translate(0,0)"/>
<path d="" fill="#619FE6" transform="translate(0,0)"/>
<path d="" fill="#60A8F9" transform="translate(0,0)"/>
<path d="" fill="#629FEA" transform="translate(0,0)"/>
<path d="" fill="#64A9F6" transform="translate(0,0)"/>
<path d="" fill="#65AAF8" transform="translate(0,0)"/>
<path d="" fill="#5EA6F8" transform="translate(0,0)"/>
<path d="" fill="#61A8F5" transform="translate(0,0)"/>
<path d="" fill="#5E9CE4" transform="translate(0,0)"/>
<path d="" fill="#5C9CE8" transform="translate(0,0)"/>
<path d="" fill="#609EE7" transform="translate(0,0)"/>
<path d="" fill="#5E9EE8" transform="translate(0,0)"/>
<path d="" fill="#61A1E6" transform="translate(0,0)"/>
<path d="" fill="#66A3E9" transform="translate(0,0)"/>
<path d="" fill="#5EA6F7" transform="translate(0,0)"/>
<path d="" fill="#629EE5" transform="translate(0,0)"/>
<path d="" fill="#62AAF7" transform="translate(0,0)"/>
<path d="" fill="#60A1E8" transform="translate(0,0)"/>
<path d="" fill="#609DE6" transform="translate(0,0)"/>
<path d="" fill="#599DE4" transform="translate(0,0)"/>
<path d="" fill="#62A2E9" transform="translate(0,0)"/>
<path d="" fill="#609EE9" transform="translate(0,0)"/>
<path d="" fill="#5FA9F5" transform="translate(0,0)"/>
<path d="" fill="#5DA6F5" transform="translate(0,0)"/>
<path d="" fill="#5DA8F6" transform="translate(0,0)"/>
<path d="" fill="#57A3F5" transform="translate(0,0)"/>
<path d="" fill="#5CA6F7" transform="translate(0,0)"/>
<path d="" fill="#5DA8F3" transform="translate(0,0)"/>
<path d="" fill="#60A7F6" transform="translate(0,0)"/>
<path d="" fill="#5FA6F8" transform="translate(0,0)"/>
<path d="" fill="#5D9DE6" transform="translate(0,0)"/>
<path d="" fill="#5CA1EA" transform="translate(0,0)"/>
<path d="" fill="#60A9F8" transform="translate(0,0)"/>
<path d="" fill="#5FA7FA" transform="translate(0,0)"/>
<path d="" fill="#5DA5F7" transform="translate(0,0)"/>
<path d="" fill="#5EA5F8" transform="translate(0,0)"/>
<path d="" fill="#59A8F9" transform="translate(0,0)"/>
<path d="" fill="#5FA6F9" transform="translate(0,0)"/>
<path d="" fill="#5D9EE9" transform="translate(0,0)"/>
<path d="" fill="#5E9FE8" transform="translate(0,0)"/>
<path d="" fill="#5FA8F9" transform="translate(0,0)"/>
<path d="" fill="#61A2EA" transform="translate(0,0)"/>
<path d="" fill="#5DA6F6" transform="translate(0,0)"/>
<path d="" fill="#619CEB" transform="translate(0,0)"/>
<path d="" fill="#60A8F7" transform="translate(0,0)"/>
<path d="" fill="#60A7F6" transform="translate(0,0)"/>
<path d="" fill="#5FA6F7" transform="translate(0,0)"/>
<path d="" fill="#5FA5F6" transform="translate(0,0)"/>
<path d="" fill="#5FA3F4" transform="translate(0,0)"/>
<path d="" fill="#5DA4F4" transform="translate(0,0)"/>
<path d="" fill="#61A8F4" transform="translate(0,0)"/>
<path d="" fill="#5AA3FA" transform="translate(0,0)"/>
<path d="" fill="#60A8F3" transform="translate(0,0)"/>
<path d="" fill="#5CA4F3" transform="translate(0,0)"/>
<path d="" fill="#63A9F7" transform="translate(0,0)"/>
<path d="" fill="#5FA6F7" transform="translate(0,0)"/>
<path d="" fill="#5BA3F9" transform="translate(0,0)"/>
<path d="" fill="#5CA3FA" transform="translate(0,0)"/>
<path d="" fill="#5EA7F6" transform="translate(0,0)"/>
<path d="" fill="#5BA7F8" transform="translate(0,0)"/>
<path d="" fill="#5BA5F7" transform="translate(0,0)"/>
<path d="" fill="#5F9CE4" transform="translate(0,0)"/>
<path d="" fill="#5AA3F8" transform="translate(0,0)"/>
<path d="" fill="#5DA9F6" transform="translate(0,0)"/>
<path d="" fill="#5CA5FA" transform="translate(0,0)"/>
<path d="" fill="#5CA5F6" transform="translate(0,0)"/>
<path d="" fill="#60A6F8" transform="translate(0,0)"/>
<path d="" fill="#61A8FA" transform="translate(0,0)"/>
<path d="" fill="#5CA0F6" transform="translate(0,0)"/>
<path d="" fill="#63A1E7" transform="translate(0,0)"/>
<path d="" fill="#5BA6F9" transform="translate(0,0)"/>
<path d="" fill="#5FA6F7" transform="translate(0,0)"/>
<path d="" fill="#60A7F6" transform="translate(0,0)"/>
<path d="" fill="#629FEA" transform="translate(0,0)"/>
<path d="" fill="#62A6F5" transform="translate(0,0)"/>
<path d="" fill="#60A6F7" transform="translate(0,0)"/>
<path d="" fill="#60A7F3" transform="translate(0,0)"/>
<path d="" fill="#5DA6F8" transform="translate(0,0)"/>
<path d="" fill="#5EA5F7" transform="translate(0,0)"/>
<path d="" fill="#62A2EB" transform="translate(0,0)"/>
<path d="" fill="#5EA7FA" transform="translate(0,0)"/>
<path d="" fill="#5CA4FA" transform="translate(0,0)"/>
<path d="" fill="#5DA6F6" transform="translate(0,0)"/>
<path d="" fill="#5F9FE6" transform="translate(0,0)"/>
<path d="" fill="#59A4F8" transform="translate(0,0)"/>
<path d="" fill="#5EA8F7" transform="translate(0,0)"/>
<path d="" fill="#589FF4" transform="translate(0,0)"/>
<path d="" fill="#63A6F7" transform="translate(0,0)"/>
<path d="" fill="#5FA4F7" transform="translate(0,0)"/>
<path d="" fill="#5EA0E7" transform="translate(0,0)"/>
<path d="" fill="#5EA6F9" transform="translate(0,0)"/>
<path d="" fill="#5DA7FB" transform="translate(0,0)"/>
<path d="" fill="#5FA5F7" transform="translate(0,0)"/>
<path d="" fill="#5FA6F8" transform="translate(0,0)"/>
<path d="" fill="#61A8F6" transform="translate(0,0)"/>
<path d="" fill="#5FA8F7" transform="translate(0,0)"/>
<path d="" fill="#60A5F6" transform="translate(0,0)"/>
<path d="" fill="#60ABF7" transform="translate(0,0)"/>
<path d="" fill="#61A0E5" transform="translate(0,0)"/>
<path d="" fill="#5BA4FA" transform="translate(0,0)"/>
<path d="" fill="#62A8F7" transform="translate(0,0)"/>
<path d="" fill="#5DA5F9" transform="translate(0,0)"/>
<path d="" fill="#5FA8F7" transform="translate(0,0)"/>
<path d="" fill="#5DA4FA" transform="translate(0,0)"/>
<path d="" fill="#5CA5F7" transform="translate(0,0)"/>
<path d="" fill="#5CA1F6" transform="translate(0,0)"/>
<path d="" fill="#61AAF9" transform="translate(0,0)"/>
<path d="" fill="#5AA3F7" transform="translate(0,0)"/>
<path d="" fill="#5DA6F9" transform="translate(0,0)"/>
<path d="" fill="#61A5F7" transform="translate(0,0)"/>
<path d="" fill="#5FA6F9" transform="translate(0,0)"/>
<path d="" fill="#57A0F5" transform="translate(0,0)"/>
<path d="" fill="#5BA7F5" transform="translate(0,0)"/>
<path d="" fill="#61A9F5" transform="translate(0,0)"/>
<path d="" fill="#5EA7F6" transform="translate(0,0)"/>
<path d="" fill="#5EA7F7" transform="translate(0,0)"/>
<path d="" fill="#5E9DE5" transform="translate(0,0)"/>
<path d="" fill="#5EA6F8" transform="translate(0,0)"/>
<path d="" fill="#60A9FA" transform="translate(0,0)"/>
<path d="" fill="#61A5F7" transform="translate(0,0)"/>
<path d="" fill="#5FA6F7" transform="translate(0,0)"/>
<path d="" fill="#5CA6F9" transform="translate(0,0)"/>
<path d="" fill="#62A0E6" transform="translate(0,0)"/>
<path d="" fill="#5BA6F7" transform="translate(0,0)"/>
<path d="" fill="#5EA5F9" transform="translate(0,0)"/>
<path d="" fill="#5AA4FB" transform="translate(0,0)"/>
<path d="" fill="#5EA8FA" transform="translate(0,0)"/>
<path d="" fill="#5AA5F9" transform="translate(0,0)"/>
<path d="" fill="#5FA8F9" transform="translate(0,0)"/>
<path d="" fill="#5CA4FA" transform="translate(0,0)"/>
<path d="" fill="#60A5F8" transform="translate(0,0)"/>
<path d="" fill="#5DA5F9" transform="translate(0,0)"/>
<path d="" fill="#5FA4FA" transform="translate(0,0)"/>
<path d="" fill="#5DA3F5" transform="translate(0,0)"/>
<path d="" fill="#59A4F9" transform="translate(0,0)"/>
<path d="" fill="#5CA7F6" transform="translate(0,0)"/>
<path d="" fill="#5FA0E5" transform="translate(0,0)"/>
<path d="" fill="#65A2E9" transform="translate(0,0)"/>
<path d="" fill="#61A0E7" transform="translate(0,0)"/>
<path d="" fill="#5AA5F9" transform="translate(0,0)"/>
<path d="" fill="#58A4F9" transform="translate(0,0)"/>
<path d="" fill="#5FA0E8" transform="translate(0,0)"/>
<path d="" fill="#58A0F8" transform="translate(0,0)"/>
<path d="" fill="#5E9FE8" transform="translate(0,0)"/>
<path d="" fill="#5BA5F8" transform="translate(0,0)"/>
<path d="" fill="#5BA5FA" transform="translate(0,0)"/>
<path d="" fill="#5BA7F9" transform="translate(0,0)"/>
<path d="" fill="#5FA6F9" transform="translate(0,0)"/>
<path d="" fill="#5DA4F6" transform="translate(0,0)"/>
<path d="" fill="#5DA7F9" transform="translate(0,0)"/>
<path d="" fill="#5DA5F5" transform="translate(0,0)"/>
<path d="" fill="#5FA5F7" transform="translate(0,0)"/>
<path d="" fill="#5EA4F9" transform="translate(0,0)"/>
<path d="" fill="#5EA7F7" transform="translate(0,0)"/>
<path d="" fill="#5FA6F8" transform="translate(0,0)"/>
<path d="" fill="#5C9EE7" transform="translate(0,0)"/>
<path d="" fill="#58A4FB" transform="translate(0,0)"/>
<path d="" fill="#5CA6F9" transform="translate(0,0)"/>
<path d="" fill="#5EA5F7" transform="translate(0,0)"/>
<path d="" fill="#5EA5FA" transform="translate(0,0)"/>
<path d="" fill="#5AA9F8" transform="translate(0,0)"/>
<path d="" fill="#5BA6F9" transform="translate(0,0)"/>
<path d="" fill="#55A0F5" transform="translate(0,0)"/>
<path d="" fill="#59A6FA" transform="translate(0,0)"/>
<path d="" fill="#58A1F6" transform="translate(0,0)"/>
<path d="" fill="#609FE8" transform="translate(0,0)"/>
<path d="" fill="#5DA5F5" transform="translate(0,0)"/>
<path d="" fill="#5C9EEA" transform="translate(0,0)"/>
<path d="" fill="#5FA1EA" transform="translate(0,0)"/>
<path d="" fill="#5CA4F7" transform="translate(0,0)"/>
<path d="" fill="#5CA7F8" transform="translate(0,0)"/>
<path d="" fill="#62A8F5" transform="translate(0,0)"/>
<path d="" fill="#60A1EA" transform="translate(0,0)"/>
<path d="" fill="#609EE9" transform="translate(0,0)"/>
<path d="" fill="#5DA9F8" transform="translate(0,0)"/>
<path d="" fill="#60A7FB" transform="translate(0,0)"/>
<path d="" fill="#61A9F7" transform="translate(0,0)"/>
<path d="" fill="#59A3F6" transform="translate(0,0)"/>
<path d="" fill="#60A6F5" transform="translate(0,0)"/>
<path d="" fill="#65A5EB" transform="translate(0,0)"/>
<path d="" fill="#5DAAFA" transform="translate(0,0)"/>
<path d="" fill="#5CA5F6" transform="translate(0,0)"/>
<path d="" fill="#58A4FB" transform="translate(0,0)"/>
<path d="" fill="#5CA4F8" transform="translate(0,0)"/>
<path d="" fill="#58A3FB" transform="translate(0,0)"/>
<path d="" fill="#5CA6F5" transform="translate(0,0)"/>
<path d="" fill="#60A2EB" transform="translate(0,0)"/>
<path d="" fill="#5BA5F5" transform="translate(0,0)"/>
<path d="" fill="#63A2E7" transform="translate(0,0)"/>
<path d="" fill="#5CA6F7" transform="translate(0,0)"/>
<path d="" fill="#5DA6F7" transform="translate(0,0)"/>
<path d="" fill="#5FA8FA" transform="translate(0,0)"/>
<path d="" fill="#5C9EEA" transform="translate(0,0)"/>
<path d="" fill="#5DA7F6" transform="translate(0,0)"/>
<path d="" fill="#5AA7FA" transform="translate(0,0)"/>
<path d="" fill="#5BA6F4" transform="translate(0,0)"/>
<path d="" fill="#5CA7F7" transform="translate(0,0)"/>
<path d="" fill="#5EA0E9" transform="translate(0,0)"/>
<path d="" fill="#5BA6F8" transform="translate(0,0)"/>
<path d="" fill="#5AA4F6" transform="translate(0,0)"/>
<path d="" fill="#59A4F7" transform="translate(0,0)"/>
<path d="" fill="#5EA4F6" transform="translate(0,0)"/>
<path d="" fill="#61A2EC" transform="translate(0,0)"/>
<path d="" fill="#61A1EA" transform="translate(0,0)"/>
<path d="" fill="#5DA4F4" transform="translate(0,0)"/>
<path d="" fill="#5E9FEB" transform="translate(0,0)"/>
<path d="" fill="#59A5F7" transform="translate(0,0)"/>
<path d="" fill="#5DA8FB" transform="translate(0,0)"/>
<path d="" fill="#61A1EA" transform="translate(0,0)"/>
<path d="" fill="#5CA5F8" transform="translate(0,0)"/>
<path d="" fill="#62A0EB" transform="translate(0,0)"/>
<path d="" fill="#60A7F7" transform="translate(0,0)"/>
<path d="" fill="#5BA4F9" transform="translate(0,0)"/>
<path d="" fill="#5F9FE8" transform="translate(0,0)"/>
<path d="" fill="#58A4F4" transform="translate(0,0)"/>
<path d="" fill="#5EA7FA" transform="translate(0,0)"/>
<path d="" fill="#61A1EA" transform="translate(0,0)"/>
<path d="" fill="#5BA3F9" transform="translate(0,0)"/>
<path d="" fill="#5BA5F8" transform="translate(0,0)"/>
<path d="" fill="#609EEB" transform="translate(0,0)"/>
<path d="" fill="#61A3EC" transform="translate(0,0)"/>
<path d="" fill="#57A2F5" transform="translate(0,0)"/>
<path d="" fill="#61A0EA" transform="translate(0,0)"/>
<path d="" fill="#5EA5F5" transform="translate(0,0)"/>
<path d="" fill="#59A6FB" transform="translate(0,0)"/>
<path d="" fill="#61A6F6" transform="translate(0,0)"/>
<path d="" fill="#5DA7F8" transform="translate(0,0)"/>
<path d="" fill="#62A2EA" transform="translate(0,0)"/>
<path d="" fill="#63A8F7" transform="translate(0,0)"/>
<path d="" fill="#61A8F5" transform="translate(0,0)"/>
<path d="" fill="#5FA4F4" transform="translate(0,0)"/>
<path d="" fill="#60A6F5" transform="translate(0,0)"/>
<path d="" fill="#5EA7F9" transform="translate(0,0)"/>
<path d="" fill="#5CA6F8" transform="translate(0,0)"/>
<path d="" fill="#5FA0E8" transform="translate(0,0)"/>
<path d="" fill="#5CA5F8" transform="translate(0,0)"/>
<path d="" fill="#62A8F6" transform="translate(0,0)"/>
<path d="" fill="#5EA9FB" transform="translate(0,0)"/>
<path d="" fill="#5FA5F8" transform="translate(0,0)"/>
<path d="" fill="#5DA9FB" transform="translate(0,0)"/>
<path d="" fill="#60A7F6" transform="translate(0,0)"/>
<path d="" fill="#5FA7F7" transform="translate(0,0)"/>
<path d="" fill="#60A7F8" transform="translate(0,0)"/>
<path d="" fill="#5DA5F7" transform="translate(0,0)"/>
<path d="" fill="#62A8F2" transform="translate(0,0)"/>
<path d="" fill="#5CA7F6" transform="translate(0,0)"/>
<path d="" fill="#5DA7F4" transform="translate(0,0)"/>
<path d="" fill="#62A4F3" transform="translate(0,0)"/>
<path d="" fill="#5CA3F7" transform="translate(0,0)"/>
<path d="" fill="#58A7F9" transform="translate(0,0)"/>
<path d="" fill="#5EA6F8" transform="translate(0,0)"/>
<path d="" fill="#60A4F6" transform="translate(0,0)"/>
<path d="" fill="#5DA5F8" transform="translate(0,0)"/>
<path d="" fill="#5DA7F6" transform="translate(0,0)"/>
<path d="" fill="#5DA5F8" transform="translate(0,0)"/>
<path d="" fill="#67A2EA" transform="translate(0,0)"/>
<path d="" fill="#61A9F7" transform="translate(0,0)"/>
<path d="" fill="#60A0EC" transform="translate(0,0)"/>
<path d="" fill="#5FA6F7" transform="translate(0,0)"/>
<path d="" fill="#63A2EB" transform="translate(0,0)"/>
<path d="" fill="#5FA5F8" transform="translate(0,0)"/>
<path d="" fill="#5EA4F9" transform="translate(0,0)"/>
<path d="" fill="#60A9FA" transform="translate(0,0)"/>
<path d="" fill="#62A2EB" transform="translate(0,0)"/>
<path d="" fill="#60A8F7" transform="translate(0,0)"/>
<path d="" fill="#5FA8F8" transform="translate(0,0)"/>
<path d="" fill="#5CA5FB" transform="translate(0,0)"/>
<path d="" fill="#65A4ED" transform="translate(0,0)"/>
<path d="" fill="#5FA7FA" transform="translate(0,0)"/>
<path d="" fill="#5AA6F5" transform="translate(0,0)"/>
<path d="" fill="#61A6F8" transform="translate(0,0)"/>
<path d="" fill="#61A8F7" transform="translate(0,0)"/>
<path d="" fill="#5CA4F5" transform="translate(0,0)"/>
<path d="" fill="#5EA6F9" transform="translate(0,0)"/>
<path d="" fill="#64A3EA" transform="translate(0,0)"/>
<path d="" fill="#5CA7F8" transform="translate(0,0)"/>
<path d="" fill="#5DA4F6" transform="translate(0,0)"/>
<path d="" fill="#5DA6F5" transform="translate(0,0)"/>
<path d="" fill="#60A7F7" transform="translate(0,0)"/>
<path d="" fill="#58A5F8" transform="translate(0,0)"/>
<path d="" fill="#5DA6FA" transform="translate(0,0)"/>
<path d="" fill="#5DA9F8" transform="translate(0,0)"/>
<path d="" fill="#63A6F5" transform="translate(0,0)"/>
<path d="" fill="#64ABF3" transform="translate(0,0)"/>
<path d="" fill="#61AAFA" transform="translate(0,0)"/>
<path d="" fill="#5CA5F4" transform="translate(0,0)"/>
<path d="" fill="#5EA5F8" transform="translate(0,0)"/>
<path d="" fill="#63A1E7" transform="translate(0,0)"/>
<path d="" fill="#5FA8F9" transform="translate(0,0)"/>
<path d="" fill="#5FA8F6" transform="translate(0,0)"/>
<path d="" fill="#62ABF8" transform="translate(0,0)"/>
<path d="" fill="#61A9F8" transform="translate(0,0)"/>
<path d="" fill="#5EA8F7" transform="translate(0,0)"/>
<path d="" fill="#5DA6F9" transform="translate(0,0)"/>
<path d="" fill="#5AA1F9" transform="translate(0,0)"/>
<path d="" fill="#5E9DE2" transform="translate(0,0)"/>
<path d="" fill="#61A0E7" transform="translate(0,0)"/>
<path d="" fill="#61A6F8" transform="translate(0,0)"/>
<path d="" fill="#5FA9F7" transform="translate(0,0)"/>
<path d="" fill="#60A7F6" transform="translate(0,0)"/>
<path d="" fill="#5FA8F7" transform="translate(0,0)"/>
<path d="" fill="#61A7F9" transform="translate(0,0)"/>
<path d="" fill="#5EA6F7" transform="translate(0,0)"/>
<path d="" fill="#5EA5F8" transform="translate(0,0)"/>
<path d="" fill="#61A3F6" transform="translate(0,0)"/>
<path d="" fill="#5CA4F5" transform="translate(0,0)"/>
<path d="" fill="#5CA6F8" transform="translate(0,0)"/>
<path d="" fill="#5EA7F5" transform="translate(0,0)"/>
<path d="" fill="#60A5F7" transform="translate(0,0)"/>
<path d="" fill="#5DA6F8" transform="translate(0,0)"/>
<path d="" fill="#5FA8F8" transform="translate(0,0)"/>
<path d="" fill="#5DA7F7" transform="translate(0,0)"/>
<path d="" fill="#59A4F9" transform="translate(0,0)"/>
<path d="" fill="#61A8F7" transform="translate(0,0)"/>
<path d="" fill="#5EA6F8" transform="translate(0,0)"/>
<path d="" fill="#5CA8F9" transform="translate(0,0)"/>
<path d="" fill="#60A7F9" transform="translate(0,0)"/>
<path d="" fill="#60A8F6" transform="translate(0,0)"/>
<path d="" fill="#5CA1E5" transform="translate(0,0)"/>
<path d="" fill="#60A9F6" transform="translate(0,0)"/>
<path d="" fill="#5A9BE6" transform="translate(0,0)"/>
<path d="" fill="#5EA7F8" transform="translate(0,0)"/>
<path d="" fill="#61A8F6" transform="translate(0,0)"/>
<path d="" fill="#5EA3F4" transform="translate(0,0)"/>
<path d="" fill="#5FA7F3" transform="translate(0,0)"/>
<path d="" fill="#64AAF5" transform="translate(0,0)"/>
<path d="" fill="#5EA6F9" transform="translate(0,0)"/>
<path d="" fill="#5AA7F6" transform="translate(0,0)"/>
<path d="" fill="#60A6F9" transform="translate(0,0)"/>
<path d="" fill="#5DA3F5" transform="translate(0,0)"/>
<path d="" fill="#5FA9FA" transform="translate(0,0)"/>
<path d="" fill="#5DA5F6" transform="translate(0,0)"/>
<path d="" fill="#5FA7FB" transform="translate(0,0)"/>
<path d="" fill="#60A6F7" transform="translate(0,0)"/>
<path d="" fill="#5CA7F6" transform="translate(0,0)"/>
<path d="" fill="#5EA7F9" transform="translate(0,0)"/>
<path d="" fill="#60A2E7" transform="translate(0,0)"/>
<path d="" fill="#5CA6F8" transform="translate(0,0)"/>
<path d="" fill="#5CA6F8" transform="translate(0,0)"/>
<path d="" fill="#5FA4F7" transform="translate(0,0)"/>
<path d="" fill="#62A9F8" transform="translate(0,0)"/>
<path d="" fill="#5FA4F8" transform="translate(0,0)"/>
<path d="" fill="#5EA7F5" transform="translate(0,0)"/>
<path d="" fill="#5DA7F7" transform="translate(0,0)"/>
<path d="" fill="#5E9FE7" transform="translate(0,0)"/>
<path d="" fill="#61A8F9" transform="translate(0,0)"/>
<path d="" fill="#66A0E6" transform="translate(0,0)"/>
<path d="" fill="#5CA9FC" transform="translate(0,0)"/>
<path d="" fill="#5CA6F9" transform="translate(0,0)"/>
<path d="" fill="#63A1E9" transform="translate(0,0)"/>
<path d="" fill="#63A7F5" transform="translate(0,0)"/>
<path d="" fill="#5CA5F8" transform="translate(0,0)"/>
<path d="" fill="#5EA8F8" transform="translate(0,0)"/>
<path d="" fill="#619EE6" transform="translate(0,0)"/>
<path d="" fill="#5DA2F8" transform="translate(0,0)"/>
<path d="" fill="#60A6FB" transform="translate(0,0)"/>
<path d="" fill="#5DA7F9" transform="translate(0,0)"/>
<path d="" fill="#609EE7" transform="translate(0,0)"/>
<path d="" fill="#5DA4F8" transform="translate(0,0)"/>
<path d="" fill="#5BA6F8" transform="translate(0,0)"/>
<path d="" fill="#5DA4F7" transform="translate(0,0)"/>
<path d="" fill="#5DA8F8" transform="translate(0,0)"/>
<path d="" fill="#5CA5F5" transform="translate(0,0)"/>
<path d="" fill="#5AA5F8" transform="translate(0,0)"/>
<path d="" fill="#5EA7F4" transform="translate(0,0)"/>
<path d="" fill="#5D9DE5" transform="translate(0,0)"/>
<path d="" fill="#5EA9FB" transform="translate(0,0)"/>
<path d="" fill="#5FA9F7" transform="translate(0,0)"/>
<path d="" fill="#5BA3FA" transform="translate(0,0)"/>
<path d="" fill="#5FA7F7" transform="translate(0,0)"/>
<path d="" fill="#5AA4F8" transform="translate(0,0)"/>
<path d="" fill="#5EA7F5" transform="translate(0,0)"/>
<path d="" fill="#5CA6F6" transform="translate(0,0)"/>
<path d="" fill="#57A1F3" transform="translate(0,0)"/>
<path d="" fill="#599EE6" transform="translate(0,0)"/>
<path d="" fill="#62A1E8" transform="translate(0,0)"/>
<path d="" fill="#619FE6" transform="translate(0,0)"/>
<path d="" fill="#5F9EE5" transform="translate(0,0)"/>
<path d="" fill="#5D9AE5" transform="translate(0,0)"/>
<path d="" fill="#5F9FE8" transform="translate(0,0)"/>
<path d="" fill="#559BE7" transform="translate(0,0)"/>
<path d="" fill="#62A3E7" transform="translate(0,0)"/>
<path d="" fill="#5FA1E8" transform="translate(0,0)"/>
<path d="" fill="#609FE9" transform="translate(0,0)"/>
<path d="" fill="#5EA0E8" transform="translate(0,0)"/>
<path d="" fill="#609DE8" transform="translate(0,0)"/>
<path d="" fill="#63A3E8" transform="translate(0,0)"/>
<path d="" fill="#5F9FEA" transform="translate(0,0)"/>
<path d="" fill="#5D9AE1" transform="translate(0,0)"/>
<path d="" fill="#5C9EEA" transform="translate(0,0)"/>
<path d="" fill="#619EEA" transform="translate(0,0)"/>
<path d="" fill="#5F9FE4" transform="translate(0,0)"/>
<path d="" fill="#62A1E8" transform="translate(0,0)"/>
<path d="" fill="#5C9FEA" transform="translate(0,0)"/>
<path d="" fill="#609EEA" transform="translate(0,0)"/>
<path d="" fill="#62A1EA" transform="translate(0,0)"/>
<path d="" fill="#60A2E7" transform="translate(0,0)"/>
<path d="" fill="#5C9CE7" transform="translate(0,0)"/>
<path d="" fill="#589CE8" transform="translate(0,0)"/>
<path d="" fill="#609EE7" transform="translate(0,0)"/>
<path d="" fill="#609EE4" transform="translate(0,0)"/>
<path d="" fill="#60A2E8" transform="translate(0,0)"/>
<path d="" fill="#5E9FE6" transform="translate(0,0)"/>
<path d="" fill="#60A1E8" transform="translate(0,0)"/>
<path d="" fill="#609FE5" transform="translate(0,0)"/>
<path d="" fill="#5EA0E7" transform="translate(0,0)"/>
<path d="" fill="#62A2E9" transform="translate(0,0)"/>
<path d="" fill="#599DE6" transform="translate(0,0)"/>
<path d="" fill="#5D9FE7" transform="translate(0,0)"/>
<path d="" fill="#5C9DE9" transform="translate(0,0)"/>
<path d="" fill="#60A2EA" transform="translate(0,0)"/>
<path d="" fill="#5F9EE4" transform="translate(0,0)"/>
<path d="" fill="#5B9CE7" transform="translate(0,0)"/>
<path d="" fill="#5D9CE4" transform="translate(0,0)"/>
<path d="" fill="#5E9EE5" transform="translate(0,0)"/>
<path d="" fill="#62A1E5" transform="translate(0,0)"/>
<path d="" fill="#609CE5" transform="translate(0,0)"/>
<path d="" fill="#5E9FE9" transform="translate(0,0)"/>
<path d="" fill="#5F9FE8" transform="translate(0,0)"/>
<path d="" fill="#609CE4" transform="translate(0,0)"/>
<path d="" fill="#61A2E8" transform="translate(0,0)"/>
<path d="" fill="#5DA1EB" transform="translate(0,0)"/>
<path d="" fill="#5E9FEA" transform="translate(0,0)"/>
<path d="" fill="#609FE9" transform="translate(0,0)"/>
<path d="" fill="#5F9BE3" transform="translate(0,0)"/>
<path d="" fill="#5DA2EF" transform="translate(0,0)"/>
<path d="" fill="#5D9EE7" transform="translate(0,0)"/>
<path d="" fill="#5F9FE5" transform="translate(0,0)"/>
<path d="" fill="#5F9EEB" transform="translate(0,0)"/>
<path d="" fill="#5EA0E7" transform="translate(0,0)"/>
<path d="" fill="#609DE8" transform="translate(0,0)"/>
<path d="" fill="#5D9DE8" transform="translate(0,0)"/>
<path d="" fill="#5E9CE4" transform="translate(0,0)"/>
<path d="" fill="#5C9CE9" transform="translate(0,0)"/>
<path d="" fill="#649FE9" transform="translate(0,0)"/>
<path d="" fill="#62A1ED" transform="translate(0,0)"/>
<path d="" fill="#5C9EE8" transform="translate(0,0)"/>
<path d="" fill="#66A3E8" transform="translate(0,0)"/>
<path d="" fill="#5C9FE9" transform="translate(0,0)"/>
<path d="" fill="#5E9DEA" transform="translate(0,0)"/>
<path d="" fill="#62A0E7" transform="translate(0,0)"/>
<path d="" fill="#5E9FE7" transform="translate(0,0)"/>
<path d="" fill="#5E9FE5" transform="translate(0,0)"/>
<path d="" fill="#5C9DE9" transform="translate(0,0)"/>
<path d="" fill="#5FA2E7" transform="translate(0,0)"/>
<path d="" fill="#629EE8" transform="translate(0,0)"/>
<path d="" fill="#609EE8" transform="translate(0,0)"/>
<path d="" fill="#5CA1EE" transform="translate(0,0)"/>
<path d="" fill="#5B9EEA" transform="translate(0,0)"/>
<path d="" fill="#5EA1E7" transform="translate(0,0)"/>
<path d="" fill="#5D9EE7" transform="translate(0,0)"/>
<path d="" fill="#609FE9" transform="translate(0,0)"/>
<path d="" fill="#5F9EEB" transform="translate(0,0)"/>
<path d="" fill="#61A0E7" transform="translate(0,0)"/>
<path d="" fill="#5B9FE8" transform="translate(0,0)"/>
<path d="" fill="#60A1EB" transform="translate(0,0)"/>
<path d="" fill="#64A2EC" transform="translate(0,0)"/>
<path d="" fill="#5B9FE8" transform="translate(0,0)"/>
<path d="" fill="#61A1E9" transform="translate(0,0)"/>
<path d="" fill="#5F9FEB" transform="translate(0,0)"/>
<path d="" fill="#61A3ED" transform="translate(0,0)"/>
<path d="" fill="#65A3EC" transform="translate(0,0)"/>
<path d="" fill="#64A7ED" transform="translate(0,0)"/>
<path d="" fill="#5EA1EC" transform="translate(0,0)"/>
<path d="" fill="#63A5EB" transform="translate(0,0)"/>
<path d="" fill="#5EA2EB" transform="translate(0,0)"/>
<path d="" fill="#63A4EC" transform="translate(0,0)"/>
<path d="" fill="#5B9EED" transform="translate(0,0)"/>
<path d="" fill="#61A3E9" transform="translate(0,0)"/>
<path d="" fill="#5E9FEA" transform="translate(0,0)"/>
<path d="" fill="#5CA2EC" transform="translate(0,0)"/>
<path d="" fill="#5DA0EE" transform="translate(0,0)"/>
<path d="" fill="#5F9FE8" transform="translate(0,0)"/>
<path d="" fill="#60A0EC" transform="translate(0,0)"/>
<path d="" fill="#5F9EE7" transform="translate(0,0)"/>
<path d="" fill="#599DE8" transform="translate(0,0)"/>
<path d="" fill="#61A4EC" transform="translate(0,0)"/>
<path d="" fill="#60A1E9" transform="translate(0,0)"/>
<path d="" fill="#5B9EE9" transform="translate(0,0)"/>
<path d="" fill="#61A0EB" transform="translate(0,0)"/>
<path d="" fill="#5C9FE8" transform="translate(0,0)"/>
<path d="" fill="#5B9FEC" transform="translate(0,0)"/>
<path d="" fill="#5C9DEA" transform="translate(0,0)"/>
<path d="" fill="#63A4F0" transform="translate(0,0)"/>
<path d="" fill="#60A2ED" transform="translate(0,0)"/>
<path d="" fill="#62A2EB" transform="translate(0,0)"/>
<path d="" fill="#5D9FEC" transform="translate(0,0)"/>
<path d="" fill="#5DA1EC" transform="translate(0,0)"/>
<path d="" fill="#5C9CED" transform="translate(0,0)"/>
<path d="" fill="#5B9FEA" transform="translate(0,0)"/>
<path d="" fill="#5F9FEC" transform="translate(0,0)"/>
</svg>
